<svg width="510" height="510" viewBox="0 0 510 510" fill="none" xmlns="http://www.w3.org/2000/svg">
<path fill-rule="evenodd" clip-rule="evenodd" d="M504.807 394.869C504.807 394.869 505.282 113.369 504.742 113.969C502.86 95.2397 497.567 82.3225 477.359 82.3225H438.484C399.609 82.3225 399.609 82.3225 399.609 45.392V41.9305C399.609 21.5344 382.204 5 360.734 5H321.859C300.389 5 282.984 21.5343 282.984 41.9305V84.0532C282.984 104.449 300.389 120.984 321.859 120.984L380.933 122.714C392.171 122.714 399.345 130.504 399.345 141.18C399.345 151.856 392.171 159.645 380.933 159.645L302.144 157.914C224.679 157.914 225.786 157.914 224.679 120.984V117.522C224.679 97.1261 207.274 80.5917 185.804 80.5917H146.929C125.459 80.5917 108.054 97.1261 108.054 117.522V159.645C108.054 180.041 125.459 196.575 146.929 196.575H324.196C335.435 196.575 344.545 205.23 344.545 215.906C344.545 226.582 335.435 235.237 324.196 235.237H43.8751C22.4049 235.237 5 251.771 5 272.167V314.29C5 334.686 22.4049 351.22 43.8751 351.22H82.7502C104.22 351.22 121.625 334.686 121.625 314.29V310.828C121.625 273.898 121.625 273.898 160.5 273.898H324.196C335.435 273.898 344.545 282.552 344.545 293.228C344.545 303.904 335.435 312.559 324.196 312.559H191.197C169.726 312.559 152.321 329.093 152.321 349.49V391.612C152.321 412.009 169.726 428.543 191.197 428.543H230.072C251.542 428.543 268.947 412.008 268.947 391.612V388.151C268.947 351.22 268.947 351.22 302.144 351.22L418.769 349.49C430.007 349.49 439.118 358.144 439.118 368.82C439.118 379.496 430.007 388.151 418.769 388.151L341.019 389.016C319.549 389.016 302.144 405.551 302.144 425.947V468.07C302.144 488.466 319.549 505 341.019 505H379.894C401.364 505 418.769 488.466 418.769 468.07V464.608C418.769 428.543 418.769 428.543 466.045 428.543C504.807 428.543 504.807 394.869 504.807 394.869Z" stroke="#26FFDF" stroke-width="5"/>
<path fill-rule="evenodd" clip-rule="evenodd" d="M504.807 394.869C504.807 394.869 505.282 113.369 504.742 113.969C502.86 95.2397 497.567 82.3225 477.359 82.3225H438.484C399.609 82.3225 399.609 82.3225 399.609 45.392V41.9305C399.609 21.5344 382.204 5 360.734 5H321.859C300.389 5 282.984 21.5343 282.984 41.9305V84.0532C282.984 104.449 300.389 120.984 321.859 120.984L380.933 122.714C392.171 122.714 399.345 130.504 399.345 141.18C399.345 151.856 392.171 159.645 380.933 159.645L302.144 157.914C224.679 157.914 225.786 157.914 224.679 120.984V117.522C224.679 97.1261 207.274 80.5917 185.804 80.5917H146.929C125.459 80.5917 108.054 97.1261 108.054 117.522V159.645C108.054 180.041 125.459 196.575 146.929 196.575H324.196C335.435 196.575 344.545 205.23 344.545 215.906C344.545 226.582 335.435 235.237 324.196 235.237H43.8751C22.4049 235.237 5.00001 251.771 5.00001 272.167V314.29C5.00001 334.686 22.4049 351.22 43.8751 351.22H82.7503C104.22 351.22 121.625 334.686 121.625 314.29V310.828C121.625 273.898 121.625 273.898 160.5 273.898H324.196C335.435 273.898 344.545 282.553 344.545 293.228C344.545 303.904 335.435 312.559 324.196 312.559H191.197C169.726 312.559 152.321 329.093 152.321 349.49V391.612C152.321 412.009 169.726 428.543 191.197 428.543H230.072C251.542 428.543 268.947 412.008 268.947 391.612V388.151C268.947 351.22 268.947 351.22 302.144 351.22L418.769 349.49C430.007 349.49 439.118 358.144 439.118 368.82C439.118 379.496 430.007 388.151 418.769 388.151L341.019 389.016C319.549 389.016 302.144 405.551 302.144 425.947V468.07C302.144 488.466 319.549 505 341.019 505H379.894C401.364 505 418.769 488.466 418.769 468.07V464.608C418.769 428.543 418.769 428.543 466.045 428.543C504.807 428.543 504.807 394.869 504.807 394.869Z" stroke="#025159" stroke-width="10"/>
<path d="M359.76 475C354.582 475 350.08 474.303 346.256 472.908C342.432 471.457 339.245 469.448 336.695 466.881C334.146 464.315 332.233 461.302 330.959 457.842C329.764 454.383 329.166 450.588 329.166 446.459C329.166 440.433 330.401 435.244 332.871 430.892C335.341 426.539 338.886 423.219 343.507 420.932C348.208 418.644 353.785 417.5 360.238 417.5C366.851 417.5 372.428 418.7 376.97 421.099C381.511 423.443 384.937 426.762 387.247 431.059C389.638 435.355 390.833 440.405 390.833 446.208C390.833 450.337 390.195 454.159 388.921 457.675C387.646 461.19 385.694 464.259 383.065 466.881C380.515 469.448 377.288 471.457 373.384 472.908C369.48 474.303 364.939 475 359.76 475ZM359.999 468.304C363.186 468.304 365.975 467.83 368.365 466.881C370.755 465.933 372.787 464.538 374.46 462.697C376.133 460.799 377.368 458.512 378.165 455.833C379.041 453.099 379.479 450.002 379.479 446.543C379.479 441.912 378.762 437.922 377.328 434.574C375.894 431.226 373.703 428.66 370.755 426.874C367.887 425.089 364.302 424.196 359.999 424.196C355.777 424.196 352.191 425.061 349.244 426.79C346.375 428.52 344.184 431.031 342.671 434.323C341.157 437.615 340.4 441.633 340.4 446.376C340.4 449.891 340.798 453.016 341.595 455.75C342.471 458.428 343.746 460.716 345.419 462.613C347.092 464.454 349.124 465.877 351.514 466.881C353.984 467.83 356.812 468.304 359.999 468.304Z" fill="#025159"/>
<path d="M210.594 397.5C205.416 397.5 200.914 396.813 197.09 395.438C193.266 394.008 190.079 392.028 187.529 389.499C184.98 386.969 183.067 384 181.793 380.591C180.598 377.181 180 373.442 180 369.373C180 363.434 181.235 358.32 183.705 354.031C186.175 349.742 189.72 346.47 194.341 344.215C199.042 341.961 204.619 340.833 211.072 340.833C217.685 340.833 223.262 342.016 227.804 344.38C232.345 346.69 235.771 349.962 238.081 354.196C240.472 358.43 241.667 363.406 241.667 369.125C241.667 373.195 241.029 376.961 239.755 380.426C238.48 383.89 236.528 386.914 233.899 389.499C231.349 392.028 228.122 394.008 224.218 395.438C220.314 396.813 215.773 397.5 210.594 397.5ZM210.833 390.901C214.02 390.901 216.809 390.434 219.199 389.499C221.589 388.564 223.621 387.189 225.294 385.375C226.967 383.505 228.202 381.251 228.999 378.611C229.875 375.917 230.313 372.865 230.313 369.455C230.313 364.891 229.596 360.959 228.162 357.66C226.728 354.361 224.537 351.831 221.589 350.071C218.721 348.312 215.136 347.432 210.833 347.432C206.611 347.432 203.025 348.284 200.078 349.989C197.209 351.694 195.018 354.168 193.505 357.413C191.991 360.657 191.234 364.616 191.234 369.29C191.234 372.755 191.632 375.834 192.429 378.529C193.305 381.168 194.58 383.423 196.253 385.292C197.926 387.107 199.958 388.509 202.348 389.499C204.818 390.434 207.646 390.901 210.833 390.901Z" fill="#025159"/>
<path d="M63.9283 320.833C58.7496 320.833 54.2481 320.136 50.4238 318.741C46.5995 317.29 43.4126 315.281 40.8631 312.715C38.3135 310.148 36.4014 307.135 35.1266 303.675C33.9315 300.216 33.334 296.422 33.334 292.292C33.334 286.266 34.5689 281.077 37.0388 276.725C39.5086 272.373 43.0541 269.053 47.6751 266.765C52.3758 264.477 57.9528 263.333 64.4063 263.333C71.0192 263.333 76.5963 264.533 81.1376 266.932C85.6789 269.276 89.1049 272.596 91.4154 276.892C93.8056 281.189 95.0007 286.238 95.0007 292.041C95.0007 296.17 94.3633 299.993 93.0885 303.508C91.8137 307.023 89.8618 310.092 87.2326 312.715C84.683 315.281 81.4563 317.29 77.5523 318.741C73.6484 320.136 69.107 320.833 63.9283 320.833ZM64.1673 314.137C67.3542 314.137 70.1428 313.663 72.5329 312.715C74.9231 311.766 76.9548 310.371 78.6279 308.53C80.301 306.633 81.536 304.345 82.3327 301.667C83.2091 298.932 83.6473 295.836 83.6473 292.376C83.6473 287.745 82.9302 283.755 81.4961 280.407C80.062 277.06 77.871 274.493 74.9231 272.707C72.0549 270.922 68.4696 270.029 64.1673 270.029C59.9447 270.029 56.3594 270.894 53.4115 272.624C50.5433 274.353 48.3523 276.864 46.8385 280.156C45.3247 283.448 44.5678 287.466 44.5678 292.209C44.5678 295.724 44.9662 298.849 45.7629 301.583C46.6393 304.261 47.9141 306.549 49.5872 308.446C51.2603 310.287 53.292 311.71 55.6822 312.715C58.152 313.663 60.9804 314.137 64.1673 314.137Z" fill="#025159"/>
<path d="M167.26 166.667C162.082 166.667 157.58 165.969 153.756 164.574C149.932 163.124 146.745 161.115 144.195 158.548C141.646 155.981 139.733 152.968 138.459 149.509C137.264 146.049 136.666 142.255 136.666 138.126C136.666 132.1 137.901 126.911 140.371 122.558C142.841 118.206 146.386 114.886 151.007 112.598C155.708 110.311 161.285 109.167 167.738 109.167C174.351 109.167 179.928 110.366 184.47 112.766C189.011 115.109 192.437 118.429 194.747 122.726C197.138 127.022 198.333 132.072 198.333 137.875C198.333 142.004 197.695 145.826 196.421 149.341C195.146 152.857 193.194 155.926 190.565 158.548C188.015 161.115 184.788 163.124 180.884 164.574C176.98 165.969 172.439 166.667 167.26 166.667ZM167.499 159.971C170.686 159.971 173.475 159.497 175.865 158.548C178.255 157.6 180.287 156.205 181.96 154.363C183.633 152.466 184.868 150.178 185.665 147.5C186.541 144.766 186.979 141.669 186.979 138.21C186.979 133.578 186.262 129.589 184.828 126.241C183.394 122.893 181.203 120.326 178.255 118.541C175.387 116.755 171.802 115.863 167.499 115.863C163.277 115.863 159.691 116.727 156.744 118.457C153.875 120.187 151.684 122.698 150.171 125.99C148.657 129.282 147.9 133.299 147.9 138.042C147.9 141.558 148.298 144.682 149.095 147.416C149.971 150.095 151.246 152.382 152.919 154.28C154.592 156.121 156.624 157.544 159.014 158.548C161.484 159.497 164.312 159.971 167.499 159.971Z" fill="#025159"/>
<path d="M341.428 90.8333C336.25 90.8333 331.748 90.1358 327.924 88.7408C324.099 87.2901 320.913 85.2813 318.363 82.7146C315.814 80.1479 313.901 77.1348 312.627 73.6753C311.432 70.2158 310.834 66.4216 310.834 62.2925C310.834 56.2663 312.069 51.0771 314.539 46.7248C317.009 42.3726 320.554 39.0526 325.175 36.7648C329.876 34.4771 335.453 33.3333 341.906 33.3333C348.519 33.3333 354.096 34.5329 358.638 36.9322C363.179 39.2758 366.605 42.5958 368.915 46.8922C371.306 51.1887 372.501 56.2384 372.501 62.0414C372.501 66.1705 371.863 69.9926 370.588 73.5079C369.314 77.0232 367.362 80.0921 364.733 82.7146C362.183 85.2813 358.956 87.2901 355.052 88.7408C351.148 90.1358 346.607 90.8333 341.428 90.8333ZM341.667 84.1375C344.854 84.1375 347.643 83.6632 350.033 82.7146C352.423 81.7661 354.455 80.3711 356.128 78.5298C357.801 76.6326 359.036 74.3449 359.833 71.6666C360.709 68.9325 361.147 65.8357 361.147 62.3762C361.147 57.7449 360.43 53.7554 358.996 50.4075C357.562 47.0596 355.371 44.4929 352.423 42.7073C349.555 40.9218 345.97 40.029 341.667 40.029C337.445 40.029 333.859 40.8939 330.912 42.6236C328.043 44.3534 325.852 46.8643 324.339 50.1564C322.825 53.4485 322.068 57.466 322.068 62.2088C322.068 65.7241 322.466 68.8488 323.263 71.5829C324.139 74.2612 325.414 76.5489 327.087 78.4461C328.76 80.2874 330.792 81.7103 333.182 82.7146C335.652 83.6632 338.48 84.1375 341.667 84.1375Z" fill="#025159"/>
</svg>
