<svg width="1920" height="1080" viewBox="0 0 1920 1080" fill="none" xmlns="http://www.w3.org/2000/svg">
<path d="M775.2 626L684 362H724L799.6 593.2H803.6L880 362H919.6L827.6 626H775.2ZM987.263 626V423.6H949.262V391.2C961.263 391.2 971.263 389.333 979.263 385.6C987.529 381.867 992.863 374 995.263 362H1024.06V626H987.263ZM1148.73 626V362H1185.53V626H1148.73ZM1068.33 394V362H1265.93V394H1068.33ZM1310.31 626V362H1402.31C1415.64 362 1427.77 363.067 1438.71 365.2C1449.91 367.333 1459.77 370.533 1468.31 374.8C1477.11 379.067 1484.44 384.267 1490.31 390.4C1496.44 396.533 1500.97 403.733 1503.91 412C1507.11 420 1508.71 428.933 1508.71 438.8C1508.71 448.133 1507.24 456.667 1504.31 464.4C1501.64 472.133 1497.51 478.933 1491.91 484.8C1486.31 490.667 1479.37 495.467 1471.11 499.2C1462.84 502.667 1453.24 505.067 1442.31 506.4V511.6C1451.91 512.667 1460.31 515.2 1467.51 519.2C1474.71 523.2 1480.84 529.067 1485.91 536.8C1490.97 544.267 1495.37 554.267 1499.11 566.8L1515.91 626H1476.31L1462.71 572C1460.31 561.067 1456.17 552.267 1450.31 545.6C1444.71 538.933 1437.64 534 1429.11 530.8C1420.57 527.6 1410.57 526 1399.11 526H1347.11V626H1310.31ZM1347.11 496H1399.11C1422.84 496 1440.71 491.733 1452.71 483.2C1464.97 474.667 1471.11 461.6 1471.11 444C1471.11 426.4 1465.24 413.467 1453.51 405.2C1442.04 396.667 1424.17 392.4 1399.91 392.4H1347.11V496ZM1666.46 631.6C1650.46 631.6 1635.93 628.4 1622.86 622C1609.8 615.6 1598.6 606.4 1589.26 594.4C1580.2 582.4 1573.13 568.133 1568.06 551.6C1563.26 534.8 1560.86 516.133 1560.86 495.6C1560.86 466.267 1565.4 441.333 1574.46 420.8C1583.53 400 1596.06 384.133 1612.06 373.2C1628.06 362.267 1646.46 356.8 1667.26 356.8C1688.86 356.8 1707.4 362.667 1722.86 374.4C1738.6 385.867 1750.6 402 1758.86 422.8C1767.4 443.333 1771.66 467.467 1771.66 495.2C1771.66 515.467 1769.26 534 1764.46 550.8C1759.66 567.6 1752.6 582 1743.26 594C1733.93 606 1722.86 615.333 1710.06 622C1697.26 628.4 1682.73 631.6 1666.46 631.6ZM1666.46 600C1676.33 600 1685.4 597.867 1693.66 593.6C1701.93 589.067 1709.13 582.4 1715.26 573.6C1721.66 564.8 1726.6 553.867 1730.06 540.8C1733.53 527.467 1735.26 511.867 1735.26 494C1735.26 471.867 1732.33 452.933 1726.46 437.2C1720.86 421.467 1712.86 409.333 1702.46 400.8C1692.33 392.267 1680.46 388 1666.86 388C1654.6 388 1643.13 391.733 1632.46 399.2C1622.06 406.4 1613.53 417.867 1606.86 433.6C1600.46 449.067 1597.26 469.2 1597.26 494C1597.26 511.333 1599 526.667 1602.46 540C1605.93 553.067 1610.73 564.133 1616.86 573.2C1623 582 1630.2 588.667 1638.46 593.2C1647 597.733 1656.33 600 1666.46 600Z" fill="#26FFDF"/>
<path fill-rule="evenodd" clip-rule="evenodd" d="M589.807 679.869C589.807 679.869 590.282 398.369 589.742 398.969C587.86 380.24 582.567 367.322 562.359 367.322H523.484C484.609 367.322 484.609 367.322 484.609 330.392V326.931C484.609 306.534 467.204 290 445.734 290H406.859C385.389 290 367.984 306.534 367.984 326.93V369.053C367.984 389.449 385.389 405.984 406.859 405.984L465.933 407.714C477.171 407.714 484.345 415.504 484.345 426.18C484.345 436.856 477.171 444.645 465.933 444.645L387.144 442.914C309.679 442.914 310.786 442.914 309.679 405.984V402.522C309.679 382.126 292.274 365.592 270.804 365.592H231.929C210.459 365.592 193.054 382.126 193.054 402.522V444.645C193.054 465.041 210.459 481.575 231.929 481.575H409.196C420.435 481.575 429.545 490.23 429.545 500.906C429.545 511.582 420.435 520.237 409.196 520.237H128.875C107.405 520.237 90 536.771 90 557.167V599.29C90 619.686 107.405 636.22 128.875 636.22H167.75C189.22 636.22 206.625 619.686 206.625 599.29V595.828C206.625 558.898 206.625 558.898 245.5 558.898H409.196C420.435 558.898 429.545 567.552 429.545 578.228C429.545 588.904 420.435 597.559 409.196 597.559H276.197C254.726 597.559 237.321 614.093 237.321 634.49V676.612C237.321 697.009 254.726 713.543 276.197 713.543H315.072C336.542 713.543 353.947 697.008 353.947 676.612V673.151C353.947 636.22 353.947 636.22 387.144 636.22L503.769 634.49C515.007 634.49 524.118 643.144 524.118 653.82C524.118 664.496 515.007 673.151 503.769 673.151L426.019 674.016C404.549 674.016 387.144 690.551 387.144 710.947V753.07C387.144 773.466 404.549 790 426.019 790H464.894C486.364 790 503.769 773.466 503.769 753.07V749.608C503.769 713.543 503.769 713.543 551.045 713.543C589.807 713.543 589.807 679.869 589.807 679.869Z" stroke="#26FFDF" stroke-width="5"/>
<path fill-rule="evenodd" clip-rule="evenodd" d="M589.807 679.869C589.807 679.869 590.282 398.369 589.742 398.969C587.86 380.24 582.567 367.322 562.359 367.322H523.484C484.609 367.322 484.609 367.322 484.609 330.392V326.931C484.609 306.534 467.204 290 445.734 290H406.859C385.389 290 367.984 306.534 367.984 326.93V369.053C367.984 389.449 385.389 405.984 406.859 405.984L465.933 407.714C477.171 407.714 484.345 415.504 484.345 426.18C484.345 436.856 477.171 444.645 465.933 444.645L387.144 442.914C309.679 442.914 310.786 442.914 309.679 405.984V402.522C309.679 382.126 292.274 365.592 270.804 365.592H231.929C210.459 365.592 193.054 382.126 193.054 402.522V444.645C193.054 465.041 210.459 481.575 231.929 481.575H409.196C420.435 481.575 429.545 490.23 429.545 500.906C429.545 511.582 420.435 520.237 409.196 520.237H128.875C107.405 520.237 90 536.771 90 557.167V599.29C90 619.686 107.405 636.22 128.875 636.22H167.75C189.22 636.22 206.625 619.686 206.625 599.29V595.828C206.625 558.898 206.625 558.898 245.5 558.898H409.196C420.435 558.898 429.545 567.553 429.545 578.228C429.545 588.904 420.435 597.559 409.196 597.559H276.197C254.726 597.559 237.321 614.093 237.321 634.49V676.612C237.321 697.009 254.726 713.543 276.197 713.543H315.072C336.542 713.543 353.947 697.008 353.947 676.612V673.151C353.947 636.22 353.947 636.22 387.144 636.22L503.769 634.49C515.007 634.49 524.118 643.144 524.118 653.82C524.118 664.496 515.007 673.151 503.769 673.151L426.019 674.016C404.549 674.016 387.144 690.551 387.144 710.947V753.07C387.144 773.466 404.549 790 426.019 790H464.894C486.364 790 503.769 773.466 503.769 753.07V749.608C503.769 713.543 503.769 713.543 551.045 713.543C589.807 713.543 589.807 679.869 589.807 679.869Z" stroke="#26FFDF" stroke-width="10"/>
<path d="M444.76 760C439.582 760 435.08 759.303 431.256 757.908C427.432 756.457 424.245 754.448 421.695 751.881C419.146 749.315 417.233 746.302 415.959 742.842C414.764 739.383 414.166 735.588 414.166 731.459C414.166 725.433 415.401 720.244 417.871 715.892C420.341 711.539 423.886 708.219 428.507 705.932C433.208 703.644 438.785 702.5 445.238 702.5C451.851 702.5 457.428 703.7 461.97 706.099C466.511 708.443 469.937 711.762 472.247 716.059C474.638 720.355 475.833 725.405 475.833 731.208C475.833 735.337 475.195 739.159 473.921 742.675C472.646 746.19 470.694 749.259 468.065 751.881C465.515 754.448 462.288 756.457 458.384 757.908C454.48 759.303 449.939 760 444.76 760ZM444.999 753.304C448.186 753.304 450.975 752.83 453.365 751.881C455.755 750.933 457.787 749.538 459.46 747.697C461.133 745.799 462.368 743.512 463.165 740.833C464.041 738.099 464.479 735.002 464.479 731.543C464.479 726.912 463.762 722.922 462.328 719.574C460.894 716.226 458.703 713.66 455.755 711.874C452.887 710.089 449.302 709.196 444.999 709.196C440.777 709.196 437.191 710.061 434.244 711.79C431.375 713.52 429.184 716.031 427.671 719.323C426.157 722.615 425.4 726.633 425.4 731.376C425.4 734.891 425.798 738.016 426.595 740.75C427.471 743.428 428.746 745.716 430.419 747.613C432.092 749.454 434.124 750.877 436.514 751.881C438.984 752.83 441.812 753.304 444.999 753.304Z" fill="#26FFDF"/>
<path d="M295.594 682.5C290.416 682.5 285.914 681.813 282.09 680.438C278.266 679.008 275.079 677.028 272.529 674.499C269.98 671.969 268.067 669 266.793 665.591C265.598 662.181 265 658.442 265 654.373C265 648.434 266.235 643.32 268.705 639.031C271.175 634.742 274.72 631.47 279.341 629.215C284.042 626.961 289.619 625.833 296.072 625.833C302.685 625.833 308.262 627.016 312.804 629.38C317.345 631.69 320.771 634.962 323.081 639.196C325.472 643.43 326.667 648.406 326.667 654.125C326.667 658.195 326.029 661.961 324.755 665.426C323.48 668.89 321.528 671.914 318.899 674.499C316.349 677.028 313.122 679.008 309.218 680.438C305.314 681.813 300.773 682.5 295.594 682.5ZM295.833 675.901C299.02 675.901 301.809 675.434 304.199 674.499C306.589 673.564 308.621 672.189 310.294 670.375C311.967 668.505 313.202 666.251 313.999 663.611C314.875 660.917 315.313 657.865 315.313 654.455C315.313 649.891 314.596 645.959 313.162 642.66C311.728 639.361 309.537 636.831 306.589 635.071C303.721 633.312 300.136 632.432 295.833 632.432C291.611 632.432 288.025 633.284 285.078 634.989C282.209 636.694 280.018 639.168 278.505 642.413C276.991 645.657 276.234 649.616 276.234 654.29C276.234 657.755 276.632 660.834 277.429 663.529C278.305 666.168 279.58 668.423 281.253 670.292C282.926 672.107 284.958 673.509 287.348 674.499C289.818 675.434 292.646 675.901 295.833 675.901Z" fill="#26FFDF"/>
<path d="M148.928 605.833C143.75 605.833 139.248 605.136 135.424 603.741C131.599 602.29 128.413 600.281 125.863 597.715C123.314 595.148 121.401 592.135 120.127 588.675C118.932 585.216 118.334 581.422 118.334 577.292C118.334 571.266 119.569 566.077 122.039 561.725C124.509 557.373 128.054 554.053 132.675 551.765C137.376 549.477 142.953 548.333 149.406 548.333C156.019 548.333 161.596 549.533 166.138 551.932C170.679 554.276 174.105 557.596 176.415 561.892C178.806 566.189 180.001 571.238 180.001 577.041C180.001 581.17 179.363 584.993 178.088 588.508C176.814 592.023 174.862 595.092 172.233 597.715C169.683 600.281 166.456 602.29 162.552 603.741C158.648 605.136 154.107 605.833 148.928 605.833ZM149.167 599.137C152.354 599.137 155.143 598.663 157.533 597.715C159.923 596.766 161.955 595.371 163.628 593.53C165.301 591.633 166.536 589.345 167.333 586.667C168.209 583.932 168.647 580.836 168.647 577.376C168.647 572.745 167.93 568.755 166.496 565.407C165.062 562.06 162.871 559.493 159.923 557.707C157.055 555.922 153.47 555.029 149.167 555.029C144.945 555.029 141.359 555.894 138.412 557.624C135.543 559.353 133.352 561.864 131.839 565.156C130.325 568.448 129.568 572.466 129.568 577.209C129.568 580.724 129.966 583.849 130.763 586.583C131.639 589.261 132.914 591.549 134.587 593.446C136.26 595.287 138.292 596.71 140.682 597.715C143.152 598.663 145.98 599.137 149.167 599.137Z" fill="#26FFDF"/>
<path d="M252.26 451.667C247.082 451.667 242.58 450.969 238.756 449.574C234.932 448.124 231.745 446.115 229.195 443.548C226.646 440.981 224.733 437.968 223.459 434.509C222.264 431.049 221.666 427.255 221.666 423.126C221.666 417.1 222.901 411.911 225.371 407.558C227.841 403.206 231.386 399.886 236.007 397.598C240.708 395.311 246.285 394.167 252.738 394.167C259.351 394.167 264.928 395.366 269.47 397.766C274.011 400.109 277.437 403.429 279.747 407.726C282.138 412.022 283.333 417.072 283.333 422.875C283.333 427.004 282.695 430.826 281.421 434.341C280.146 437.857 278.194 440.926 275.565 443.548C273.015 446.115 269.788 448.124 265.884 449.574C261.98 450.969 257.439 451.667 252.26 451.667ZM252.499 444.971C255.686 444.971 258.475 444.497 260.865 443.548C263.255 442.6 265.287 441.205 266.96 439.363C268.633 437.466 269.868 435.178 270.665 432.5C271.541 429.766 271.979 426.669 271.979 423.21C271.979 418.578 271.262 414.589 269.828 411.241C268.394 407.893 266.203 405.326 263.255 403.541C260.387 401.755 256.802 400.863 252.499 400.863C248.277 400.863 244.691 401.727 241.744 403.457C238.875 405.187 236.684 407.698 235.171 410.99C233.657 414.282 232.9 418.299 232.9 423.042C232.9 426.558 233.298 429.682 234.095 432.416C234.971 435.095 236.246 437.382 237.919 439.28C239.592 441.121 241.624 442.544 244.014 443.548C246.484 444.497 249.312 444.971 252.499 444.971Z" fill="#26FFDF"/>
<path d="M426.428 375.833C421.25 375.833 416.748 375.136 412.924 373.741C409.099 372.29 405.913 370.281 403.363 367.715C400.814 365.148 398.901 362.135 397.627 358.675C396.432 355.216 395.834 351.422 395.834 347.292C395.834 341.266 397.069 336.077 399.539 331.725C402.009 327.372 405.554 324.053 410.175 321.765C414.876 319.477 420.453 318.333 426.906 318.333C433.519 318.333 439.096 319.533 443.638 321.932C448.179 324.276 451.605 327.596 453.915 331.892C456.306 336.189 457.501 341.238 457.501 347.041C457.501 351.17 456.863 354.993 455.588 358.508C454.314 362.023 452.362 365.092 449.733 367.715C447.183 370.281 443.956 372.29 440.052 373.741C436.148 375.136 431.607 375.833 426.428 375.833ZM426.667 369.137C429.854 369.137 432.643 368.663 435.033 367.715C437.423 366.766 439.455 365.371 441.128 363.53C442.801 361.633 444.036 359.345 444.833 356.667C445.709 353.932 446.147 350.836 446.147 347.376C446.147 342.745 445.43 338.755 443.996 335.407C442.562 332.06 440.371 329.493 437.423 327.707C434.555 325.922 430.97 325.029 426.667 325.029C422.445 325.029 418.859 325.894 415.912 327.624C413.043 329.353 410.852 331.864 409.339 335.156C407.825 338.448 407.068 342.466 407.068 347.209C407.068 350.724 407.466 353.849 408.263 356.583C409.139 359.261 410.414 361.549 412.087 363.446C413.76 365.287 415.792 366.71 418.182 367.715C420.652 368.663 423.48 369.137 426.667 369.137Z" fill="#26FFDF"/>
<path d="M711.36 711.04C707.84 711.04 704.747 710.667 702.08 709.92C699.467 709.173 697.253 708.08 695.44 706.64C693.68 705.147 692.373 703.333 691.52 701.2C690.667 699.067 690.293 696.587 690.4 693.76L697.04 692.32C696.827 695.093 697.28 697.413 698.4 699.28C699.52 701.147 701.227 702.56 703.52 703.52C705.813 704.427 708.507 704.88 711.6 704.88C714.587 704.88 717.12 704.507 719.2 703.76C721.28 703.013 722.827 701.973 723.84 700.64C724.907 699.307 725.44 697.787 725.44 696.08C725.44 694.16 724.827 692.64 723.6 691.52C722.373 690.4 720.72 689.547 718.64 688.96C716.613 688.32 714.347 687.733 711.84 687.2C709.387 686.667 706.933 686.053 704.48 685.36C702.027 684.667 699.813 683.787 697.84 682.72C695.92 681.6 694.347 680.16 693.12 678.4C691.947 676.587 691.36 674.293 691.36 671.52C691.36 668.373 692.133 665.653 693.68 663.36C695.28 661.067 697.52 659.307 700.4 658.08C703.28 656.8 706.667 656.16 710.56 656.16C714.4 656.16 717.813 656.773 720.8 658C723.84 659.227 726.24 661.04 728 663.44C729.76 665.787 730.693 668.693 730.8 672.16L723.92 673.84C723.92 671.92 723.573 670.24 722.88 668.8C722.24 667.307 721.333 666.107 720.16 665.2C718.987 664.24 717.573 663.52 715.92 663.04C714.267 662.507 712.453 662.24 710.48 662.24C708.08 662.24 705.973 662.613 704.16 663.36C702.347 664.107 700.933 665.12 699.92 666.4C698.907 667.68 698.4 669.2 698.4 670.96C698.4 673.04 699.12 674.693 700.56 675.92C702.053 677.093 703.973 678.027 706.32 678.72C708.667 679.413 711.173 680.053 713.84 680.64C716.133 681.12 718.373 681.707 720.56 682.4C722.8 683.04 724.827 683.92 726.64 685.04C728.453 686.107 729.893 687.52 730.96 689.28C732.027 691.04 732.56 693.28 732.56 696C732.56 699.04 731.76 701.68 730.16 703.92C728.613 706.16 726.267 707.92 723.12 709.2C719.973 710.427 716.053 711.04 711.36 711.04ZM773.661 711.04C769.715 711.04 766.221 710.187 763.181 708.48C760.195 706.72 757.848 704.213 756.141 700.96C754.488 697.707 753.661 693.76 753.661 689.12C753.661 684.32 754.541 680.347 756.301 677.2C758.115 674 760.515 671.6 763.501 670C766.488 668.4 769.821 667.6 773.501 667.6C777.341 667.6 780.755 668.453 783.741 670.16C786.781 671.813 789.181 674.267 790.941 677.52C792.701 680.72 793.581 684.693 793.581 689.44C793.581 694.187 792.701 698.16 790.941 701.36C789.235 704.56 786.861 706.987 783.821 708.64C780.835 710.24 777.448 711.04 773.661 711.04ZM773.981 705.04C776.541 705.04 778.728 704.427 780.541 703.2C782.408 701.92 783.821 700.133 784.781 697.84C785.795 695.547 786.301 692.827 786.301 689.68C786.301 686.427 785.768 683.627 784.701 681.28C783.688 678.88 782.221 677.04 780.301 675.76C778.381 674.427 776.061 673.76 773.341 673.76C770.888 673.76 768.728 674.347 766.861 675.52C764.995 676.693 763.555 678.427 762.541 680.72C761.528 682.96 761.021 685.707 761.021 688.96C761.021 693.973 762.168 697.92 764.461 700.8C766.808 703.627 769.981 705.04 773.981 705.04ZM819.95 710V680.8H812.59V674.96L822.91 675.6V674.24C821.577 673.707 820.457 672.987 819.55 672.08C818.697 671.12 818.03 670.027 817.55 668.8C817.123 667.573 816.91 666.267 816.91 664.88C816.91 662.64 817.39 660.693 818.35 659.04C819.363 657.387 820.777 656.08 822.59 655.12C824.457 654.16 826.67 653.68 829.23 653.68C831.257 653.68 833.07 653.973 834.67 654.56C836.323 655.093 837.683 655.813 838.75 656.72L837.87 663.52C836.857 662.56 835.63 661.813 834.19 661.28C832.75 660.693 831.31 660.4 829.87 660.4C828.11 660.4 826.67 660.96 825.55 662.08C824.43 663.2 823.87 664.933 823.87 667.28C823.87 668.613 824.057 669.76 824.43 670.72C824.803 671.68 825.283 672.507 825.87 673.2C826.51 673.84 827.15 674.373 827.79 674.8H838.03L837.95 680.8H827.15V710H819.95ZM872.897 710.8C869.057 710.8 866.204 709.76 864.337 707.68C862.47 705.6 861.537 702.427 861.537 698.16V674.72H855.297L855.377 668.64H859.297C860.63 668.64 861.59 668.4 862.177 667.92C862.817 667.44 863.19 666.64 863.297 665.52L864.097 659.28H868.577V668.64H880.497V674.8H868.577V698C868.577 700.133 869.057 701.68 870.017 702.64C871.03 703.547 872.47 704 874.337 704C875.35 704 876.39 703.867 877.457 703.6C878.577 703.333 879.67 702.8 880.737 702V709.28C879.19 709.867 877.75 710.267 876.417 710.48C875.137 710.693 873.964 710.8 872.897 710.8ZM909.847 710L898.887 668.64H906.407L914.567 703.84H915.847L924.567 668.64H934.007L942.807 703.84H944.008L952.168 668.64H959.608L948.488 710H938.247L929.687 674.88H928.727L920.167 710H909.847ZM989.981 711.04C987.741 711.04 985.714 710.613 983.901 709.76C982.087 708.853 980.647 707.547 979.581 705.84C978.514 704.08 977.981 701.867 977.981 699.2C977.981 697.227 978.327 695.493 979.021 694C979.767 692.507 980.887 691.227 982.381 690.16C983.927 689.093 985.901 688.213 988.301 687.52C990.701 686.827 993.634 686.24 997.101 685.76C999.074 685.493 1000.67 685.227 1001.9 684.96C1003.18 684.693 1004.11 684.267 1004.7 683.68C1005.29 683.04 1005.58 682.107 1005.58 680.88C1005.58 678.853 1004.89 677.147 1003.5 675.76C1002.11 674.373 999.927 673.68 996.941 673.68C995.394 673.68 993.821 673.947 992.221 674.48C990.621 675.013 989.207 675.92 987.981 677.2C986.807 678.427 986.061 680.16 985.741 682.4L979.021 680.16C979.447 678.24 980.141 676.507 981.101 674.96C982.114 673.413 983.394 672.107 984.941 671.04C986.487 669.92 988.274 669.067 990.301 668.48C992.381 667.893 994.674 667.6 997.181 667.6C1000.65 667.6 1003.53 668.187 1005.82 669.36C1008.17 670.533 1009.9 672.347 1011.02 674.8C1012.19 677.2 1012.78 680.293 1012.78 684.08V693.28C1012.78 694.933 1012.81 696.747 1012.86 698.72C1012.97 700.64 1013.1 702.587 1013.26 704.56C1013.42 706.48 1013.58 708.293 1013.74 710H1007.02C1006.86 708.293 1006.7 706.587 1006.54 704.88C1006.43 703.173 1006.35 701.467 1006.3 699.76H1005.26C1004.46 701.733 1003.39 703.573 1002.06 705.28C1000.73 706.987 999.047 708.373 997.021 709.44C995.047 710.507 992.701 711.04 989.981 711.04ZM992.141 705.12C993.314 705.12 994.487 704.933 995.661 704.56C996.887 704.187 998.087 703.573 999.261 702.72C1000.49 701.867 1001.63 700.773 1002.7 699.44C1003.82 698.107 1004.81 696.507 1005.66 694.64V686.64L1007.74 687.04C1006.89 687.893 1005.74 688.533 1004.3 688.96C1002.91 689.387 1001.37 689.733 999.661 690C997.954 690.267 996.247 690.56 994.541 690.88C992.834 691.147 991.261 691.573 989.821 692.16C988.434 692.693 987.314 693.467 986.461 694.48C985.607 695.493 985.181 696.88 985.181 698.64C985.181 700.773 985.821 702.4 987.101 703.52C988.381 704.587 990.061 705.12 992.141 705.12ZM1037.79 710V687.6V668.64H1044.35L1043.71 683.04H1045.07C1045.55 679.893 1046.3 677.173 1047.31 674.88C1048.33 672.587 1049.66 670.8 1051.31 669.52C1053.02 668.24 1055.13 667.6 1057.63 667.6C1058.17 667.6 1058.78 667.653 1059.47 667.76C1060.17 667.813 1060.97 668 1061.87 668.32L1061.47 675.92C1060.67 675.6 1059.87 675.387 1059.07 675.28C1058.27 675.12 1057.5 675.04 1056.75 675.04C1054.67 675.04 1052.86 675.707 1051.31 677.04C1049.82 678.373 1048.57 680.187 1047.55 682.48C1046.54 684.72 1045.71 687.253 1045.07 690.08V710H1037.79ZM1099.6 711.04C1096.35 711.04 1093.47 710.56 1090.96 709.6C1088.51 708.587 1086.43 707.147 1084.72 705.28C1083.02 703.413 1081.74 701.2 1080.88 698.64C1080.03 696.08 1079.6 693.2 1079.6 690C1079.6 686.747 1080.03 683.76 1080.88 681.04C1081.74 678.32 1082.99 675.947 1084.64 673.92C1086.3 671.893 1088.32 670.347 1090.72 669.28C1093.12 668.16 1095.87 667.6 1098.96 667.6C1101.68 667.6 1104.16 668.053 1106.4 668.96C1108.64 669.867 1110.54 671.28 1112.08 673.2C1113.68 675.067 1114.88 677.44 1115.68 680.32C1116.48 683.147 1116.8 686.48 1116.64 690.32L1084.16 690.56V685.6L1112.24 685.36L1109.76 688.72C1110.03 685.36 1109.71 682.587 1108.8 680.4C1107.9 678.213 1106.59 676.56 1104.88 675.44C1103.23 674.32 1101.26 673.76 1098.96 673.76C1096.51 673.76 1094.35 674.4 1092.48 675.68C1090.62 676.96 1089.18 678.8 1088.16 681.2C1087.2 683.6 1086.72 686.507 1086.72 689.92C1086.72 694.827 1087.82 698.587 1090 701.2C1092.19 703.76 1095.44 705.04 1099.76 705.04C1101.42 705.04 1102.86 704.853 1104.08 704.48C1105.36 704.053 1106.43 703.493 1107.28 702.8C1108.19 702.053 1108.91 701.2 1109.44 700.24C1110.03 699.28 1110.48 698.24 1110.8 697.12L1117.2 698.64C1116.72 700.56 1115.98 702.293 1114.96 703.84C1114 705.333 1112.78 706.613 1111.28 707.68C1109.84 708.747 1108.16 709.573 1106.24 710.16C1104.32 710.747 1102.11 711.04 1099.6 711.04ZM1187.39 711.04C1183.87 711.04 1180.86 710.107 1178.35 708.24C1175.85 706.373 1173.93 703.813 1172.59 700.56C1171.31 697.307 1170.67 693.573 1170.67 689.36C1170.67 685.147 1171.31 681.413 1172.59 678.16C1173.87 674.907 1175.74 672.347 1178.19 670.48C1180.65 668.613 1183.66 667.68 1187.23 667.68C1190.17 667.68 1192.57 668.293 1194.43 669.52C1196.3 670.747 1197.79 672.347 1198.91 674.32C1200.09 676.24 1200.94 678.347 1201.47 680.64H1202.91C1202.65 679.093 1202.41 677.493 1202.19 675.84C1201.98 674.133 1201.79 672.48 1201.63 670.88C1201.47 669.227 1201.39 667.76 1201.39 666.48V654H1208.75V689.6V710H1202.19L1202.59 698.8H1201.31C1200.67 701.2 1199.77 703.333 1198.59 705.2C1197.42 707.013 1195.93 708.453 1194.11 709.52C1192.3 710.533 1190.06 711.04 1187.39 711.04ZM1189.07 704.64C1190.99 704.64 1192.73 704.187 1194.27 703.28C1195.82 702.373 1197.13 701.2 1198.19 699.76C1199.26 698.267 1200.06 696.667 1200.59 694.96C1201.18 693.253 1201.47 691.6 1201.47 690V689.04C1201.47 687.92 1201.31 686.72 1200.99 685.44C1200.67 684.107 1200.19 682.773 1199.55 681.44C1198.97 680.107 1198.17 678.88 1197.15 677.76C1196.19 676.587 1195.05 675.68 1193.71 675.04C1192.38 674.347 1190.89 674 1189.23 674C1186.83 674 1184.81 674.693 1183.15 676.08C1181.55 677.413 1180.33 679.253 1179.47 681.6C1178.67 683.947 1178.27 686.587 1178.27 689.52C1178.27 692.56 1178.7 695.227 1179.55 697.52C1180.41 699.76 1181.63 701.52 1183.23 702.8C1184.89 704.027 1186.83 704.64 1189.07 704.64ZM1251.99 711.04C1248.73 711.04 1245.85 710.56 1243.35 709.6C1240.89 708.587 1238.81 707.147 1237.11 705.28C1235.4 703.413 1234.12 701.2 1233.27 698.64C1232.41 696.08 1231.99 693.2 1231.99 690C1231.99 686.747 1232.41 683.76 1233.27 681.04C1234.12 678.32 1235.37 675.947 1237.03 673.92C1238.68 671.893 1240.71 670.347 1243.11 669.28C1245.51 668.16 1248.25 667.6 1251.35 667.6C1254.07 667.6 1256.55 668.053 1258.79 668.96C1261.03 669.867 1262.92 671.28 1264.47 673.2C1266.07 675.067 1267.27 677.44 1268.07 680.32C1268.87 683.147 1269.19 686.48 1269.03 690.32L1236.55 690.56V685.6L1264.63 685.36L1262.15 688.72C1262.41 685.36 1262.09 682.587 1261.19 680.4C1260.28 678.213 1258.97 676.56 1257.27 675.44C1255.61 674.32 1253.64 673.76 1251.35 673.76C1248.89 673.76 1246.73 674.4 1244.87 675.68C1243 676.96 1241.56 678.8 1240.55 681.2C1239.59 683.6 1239.11 686.507 1239.11 689.92C1239.11 694.827 1240.2 698.587 1242.39 701.2C1244.57 703.76 1247.83 705.04 1252.15 705.04C1253.8 705.04 1255.24 704.853 1256.47 704.48C1257.75 704.053 1258.81 703.493 1259.67 702.8C1260.57 702.053 1261.29 701.2 1261.83 700.24C1262.41 699.28 1262.87 698.24 1263.19 697.12L1269.59 698.64C1269.11 700.56 1268.36 702.293 1267.35 703.84C1266.39 705.333 1265.16 706.613 1263.67 707.68C1262.23 708.747 1260.55 709.573 1258.63 710.16C1256.71 710.747 1254.49 711.04 1251.99 711.04ZM1301.64 710L1286.84 668.72H1294.92L1306.2 703.84H1307.32L1318.52 668.72H1326.44L1311.72 710H1301.64ZM1363.99 711.04C1360.74 711.04 1357.86 710.56 1355.35 709.6C1352.9 708.587 1350.82 707.147 1349.11 705.28C1347.41 703.413 1346.13 701.2 1345.27 698.64C1344.42 696.08 1343.99 693.2 1343.99 690C1343.99 686.747 1344.42 683.76 1345.27 681.04C1346.13 678.32 1347.38 675.947 1349.03 673.92C1350.69 671.893 1352.71 670.347 1355.11 669.28C1357.51 668.16 1360.26 667.6 1363.35 667.6C1366.07 667.6 1368.55 668.053 1370.79 668.96C1373.03 669.867 1374.93 671.28 1376.47 673.2C1378.07 675.067 1379.27 677.44 1380.07 680.32C1380.87 683.147 1381.19 686.48 1381.03 690.32L1348.55 690.56V685.6L1376.63 685.36L1374.15 688.72C1374.42 685.36 1374.1 682.587 1373.19 680.4C1372.29 678.213 1370.98 676.56 1369.27 675.44C1367.62 674.32 1365.65 673.76 1363.35 673.76C1360.9 673.76 1358.74 674.4 1356.87 675.68C1355.01 676.96 1353.57 678.8 1352.55 681.2C1351.59 683.6 1351.11 686.507 1351.11 689.92C1351.11 694.827 1352.21 698.587 1354.39 701.2C1356.58 703.76 1359.83 705.04 1364.15 705.04C1365.81 705.04 1367.25 704.853 1368.47 704.48C1369.75 704.053 1370.82 703.493 1371.67 702.8C1372.58 702.053 1373.3 701.2 1373.83 700.24C1374.42 699.28 1374.87 698.24 1375.19 697.12L1381.59 698.64C1381.11 700.56 1380.37 702.293 1379.35 703.84C1378.39 705.333 1377.17 706.613 1375.67 707.68C1374.23 708.747 1372.55 709.573 1370.63 710.16C1368.71 710.747 1366.5 711.04 1363.99 711.04ZM1404.19 710V654H1411.47V710H1404.19ZM1454.59 711.04C1450.65 711.04 1447.15 710.187 1444.11 708.48C1441.13 706.72 1438.78 704.213 1437.07 700.96C1435.42 697.707 1434.59 693.76 1434.59 689.12C1434.59 684.32 1435.47 680.347 1437.23 677.2C1439.05 674 1441.45 671.6 1444.43 670C1447.42 668.4 1450.75 667.6 1454.43 667.6C1458.27 667.6 1461.69 668.453 1464.67 670.16C1467.71 671.813 1470.11 674.267 1471.87 677.52C1473.63 680.72 1474.51 684.693 1474.51 689.44C1474.51 694.187 1473.63 698.16 1471.87 701.36C1470.17 704.56 1467.79 706.987 1464.75 708.64C1461.77 710.24 1458.38 711.04 1454.59 711.04ZM1454.91 705.04C1457.47 705.04 1459.66 704.427 1461.47 703.2C1463.34 701.92 1464.75 700.133 1465.71 697.84C1466.73 695.547 1467.23 692.827 1467.23 689.68C1467.23 686.427 1466.7 683.627 1465.63 681.28C1464.62 678.88 1463.15 677.04 1461.23 675.76C1459.31 674.427 1456.99 673.76 1454.27 673.76C1451.82 673.76 1449.66 674.347 1447.79 675.52C1445.93 676.693 1444.49 678.427 1443.47 680.72C1442.46 682.96 1441.95 685.707 1441.95 688.96C1441.95 693.973 1443.1 697.92 1445.39 700.8C1447.74 703.627 1450.91 705.04 1454.91 705.04ZM1497.68 722.96V689.36V668.64H1504.24L1503.84 679.28H1505.04C1505.68 676.933 1506.56 674.907 1507.68 673.2C1508.85 671.44 1510.35 670.08 1512.16 669.12C1513.97 668.107 1516.16 667.6 1518.72 667.6C1522.51 667.6 1525.65 668.56 1528.16 670.48C1530.72 672.347 1532.64 674.933 1533.92 678.24C1535.2 681.493 1535.84 685.2 1535.84 689.36C1535.84 693.52 1535.2 697.227 1533.92 700.48C1532.64 703.733 1530.75 706.32 1528.24 708.24C1525.79 710.107 1522.77 711.04 1519.2 711.04C1516.32 711.04 1513.92 710.453 1512 709.28C1510.13 708.053 1508.64 706.453 1507.52 704.48C1506.4 702.507 1505.52 700.453 1504.88 698.32H1503.52C1503.84 699.76 1504.11 701.253 1504.32 702.8C1504.53 704.347 1504.69 705.893 1504.8 707.44C1504.96 708.933 1505.04 710.373 1505.04 711.76V722.96H1497.68ZM1517.36 704.72C1519.71 704.72 1521.68 704.053 1523.28 702.72C1524.88 701.333 1526.11 699.467 1526.96 697.12C1527.81 694.773 1528.24 692.133 1528.24 689.2C1528.24 686.053 1527.79 683.36 1526.88 681.12C1526.03 678.88 1524.8 677.147 1523.2 675.92C1521.6 674.64 1519.65 674 1517.36 674C1515.39 674 1513.63 674.453 1512.08 675.36C1510.59 676.213 1509.31 677.387 1508.24 678.88C1507.17 680.32 1506.35 681.92 1505.76 683.68C1505.23 685.387 1504.96 687.093 1504.96 688.8V689.76C1504.96 690.827 1505.12 692.027 1505.44 693.36C1505.76 694.64 1506.24 695.947 1506.88 697.28C1507.52 698.613 1508.32 699.84 1509.28 700.96C1510.29 702.08 1511.47 702.987 1512.8 703.68C1514.13 704.373 1515.65 704.72 1517.36 704.72ZM1559.15 710V684.4V668.64H1565.63L1564.91 681.76H1566.27C1566.96 678.613 1567.9 676 1569.07 673.92C1570.24 671.787 1571.68 670.213 1573.39 669.2C1575.15 668.133 1577.15 667.6 1579.39 667.6C1582.06 667.6 1584.24 668.267 1585.95 669.6C1587.66 670.88 1588.91 672.56 1589.71 674.64C1590.56 676.72 1590.99 679.013 1590.99 681.52H1592.27C1592.86 678.533 1593.76 676 1594.99 673.92C1596.22 671.84 1597.74 670.267 1599.55 669.2C1601.36 668.133 1603.44 667.6 1605.79 667.6C1607.92 667.6 1609.79 668.027 1611.39 668.88C1612.99 669.733 1614.35 671.013 1615.47 672.72C1616.59 674.373 1617.42 676.427 1617.95 678.88C1618.48 681.333 1618.75 684.16 1618.75 687.36V710H1611.47V688.32C1611.47 685.173 1611.18 682.56 1610.59 680.48C1610 678.347 1609.12 676.773 1607.95 675.76C1606.83 674.693 1605.39 674.16 1603.63 674.16C1601.66 674.16 1599.87 674.853 1598.27 676.24C1596.72 677.573 1595.44 679.467 1594.43 681.92C1593.47 684.32 1592.83 687.067 1592.51 690.16V710H1585.39V689.04C1585.39 685.733 1585.1 682.987 1584.51 680.8C1583.92 678.613 1583.04 676.96 1581.87 675.84C1580.75 674.72 1579.28 674.16 1577.47 674.16C1575.34 674.16 1573.5 674.907 1571.95 676.4C1570.4 677.84 1569.15 679.787 1568.19 682.24C1567.28 684.693 1566.7 687.44 1566.43 690.48V710H1559.15ZM1661.27 711.04C1658.02 711.04 1655.14 710.56 1652.63 709.6C1650.18 708.587 1648.1 707.147 1646.39 705.28C1644.69 703.413 1643.41 701.2 1642.55 698.64C1641.7 696.08 1641.27 693.2 1641.27 690C1641.27 686.747 1641.7 683.76 1642.55 681.04C1643.41 678.32 1644.66 675.947 1646.31 673.92C1647.97 671.893 1649.99 670.347 1652.39 669.28C1654.79 668.16 1657.54 667.6 1660.63 667.6C1663.35 667.6 1665.83 668.053 1668.07 668.96C1670.31 669.867 1672.21 671.28 1673.75 673.2C1675.35 675.067 1676.55 677.44 1677.35 680.32C1678.15 683.147 1678.47 686.48 1678.31 690.32L1645.83 690.56V685.6L1673.91 685.36L1671.43 688.72C1671.7 685.36 1671.38 682.587 1670.47 680.4C1669.57 678.213 1668.26 676.56 1666.55 675.44C1664.9 674.32 1662.93 673.76 1660.63 673.76C1658.18 673.76 1656.02 674.4 1654.15 675.68C1652.29 676.96 1650.85 678.8 1649.83 681.2C1648.87 683.6 1648.39 686.507 1648.39 689.92C1648.39 694.827 1649.49 698.587 1651.67 701.2C1653.86 703.76 1657.11 705.04 1661.43 705.04C1663.09 705.04 1664.53 704.853 1665.75 704.48C1667.03 704.053 1668.1 703.493 1668.95 702.8C1669.86 702.053 1670.58 701.2 1671.11 700.24C1671.7 699.28 1672.15 698.24 1672.47 697.12L1678.87 698.64C1678.39 700.56 1677.65 702.293 1676.63 703.84C1675.67 705.333 1674.45 706.613 1672.95 707.68C1671.51 708.747 1669.83 709.573 1667.91 710.16C1665.99 710.747 1663.78 711.04 1661.27 711.04ZM1701.47 710V684.32V668.64H1708.03L1707.31 681.76H1708.67C1709.42 678.507 1710.4 675.84 1711.63 673.76C1712.91 671.68 1714.51 670.133 1716.43 669.12C1718.35 668.107 1720.59 667.6 1723.15 667.6C1727.74 667.6 1731.2 669.253 1733.55 672.56C1735.95 675.813 1737.15 680.693 1737.15 687.2V710H1729.79V687.84C1729.79 683.147 1729.04 679.68 1727.55 677.44C1726.11 675.2 1723.98 674.08 1721.15 674.08C1718.59 674.08 1716.4 674.88 1714.59 676.48C1712.83 678.08 1711.44 680.187 1710.43 682.8C1709.42 685.413 1708.86 688.24 1708.75 691.28V710H1701.47ZM1774.73 710.8C1770.89 710.8 1768.03 709.76 1766.17 707.68C1764.3 705.6 1763.37 702.427 1763.37 698.16V674.72H1757.13L1757.21 668.64H1761.13C1762.46 668.64 1763.42 668.4 1764.01 667.92C1764.65 667.44 1765.02 666.64 1765.13 665.52L1765.93 659.28H1770.41V668.64H1782.33V674.8H1770.41V698C1770.41 700.133 1770.89 701.68 1771.85 702.64C1772.86 703.547 1774.3 704 1776.17 704C1777.18 704 1778.22 703.867 1779.29 703.6C1780.41 703.333 1781.5 702.8 1782.57 702V709.28C1781.02 709.867 1779.58 710.267 1778.25 710.48C1776.97 710.693 1775.79 710.8 1774.73 710.8Z" fill="#26FFDF"/>
</svg>
