<svg width="1400" height="1200" viewBox="0 0 1400 1200" fill="none" xmlns="http://www.w3.org/2000/svg">
<path fill-rule="evenodd" clip-rule="evenodd" d="M1149.65 851.764C1149.65 851.764 1150.51 345.064 1149.54 346.144C1146.15 312.431 1136.62 289.18 1100.25 289.18H1030.27C960.297 289.18 960.297 289.18 960.297 222.706V216.475C960.297 179.762 928.968 150 890.321 150H820.346C781.7 150 750.371 179.762 750.371 216.475V292.296C750.371 329.009 781.7 358.771 820.346 358.771L926.68 361.886C946.909 361.886 959.821 375.907 959.821 395.123C959.821 414.34 946.909 428.361 926.68 428.361L784.859 425.246C645.422 425.246 647.415 425.246 645.422 358.771V352.54C645.422 315.827 614.093 286.065 575.447 286.065H505.472C466.826 286.065 435.497 315.827 435.497 352.54V428.361C435.497 465.074 466.826 494.836 505.472 494.836H824.554C844.782 494.836 861.181 510.414 861.181 529.631C861.181 548.848 844.782 564.426 824.554 564.426H319.975C281.329 564.426 250 594.188 250 630.901V706.722C250 743.435 281.329 773.197 319.975 773.197H389.95C428.597 773.197 459.925 743.435 459.925 706.722V700.491C459.925 634.016 459.925 634.016 529.9 634.016H824.554C844.782 634.016 861.181 649.595 861.181 668.811C861.181 688.028 844.782 703.607 824.554 703.607H585.154C546.507 703.607 515.179 733.368 515.179 770.081V845.902C515.179 882.615 546.507 912.377 585.154 912.377H655.129C693.775 912.377 725.104 882.615 725.104 845.902V839.672C725.104 773.197 725.104 773.197 784.859 773.197L994.785 770.081C1015.01 770.081 1031.41 785.659 1031.41 804.876C1031.41 824.093 1015.01 839.671 994.785 839.671L854.835 841.229C816.188 841.229 784.859 870.991 784.859 907.704V983.525C784.859 1020.24 816.188 1050 854.835 1050H924.81C963.456 1050 994.785 1020.24 994.785 983.525V977.294C994.785 912.377 994.785 912.377 1079.88 912.377C1149.65 912.377 1149.65 851.764 1149.65 851.764Z" fill="#06414D" fill-opacity="0.4" stroke="#26FFDF" stroke-width="15"/>
<path d="M888.569 996C879.247 996 871.144 994.745 864.261 992.234C857.377 989.622 851.641 986.007 847.051 981.386C842.462 976.766 839.02 971.343 836.726 965.116C834.575 958.889 833.499 952.059 833.499 944.627C833.499 933.779 835.722 924.439 840.168 916.605C844.613 908.771 850.995 902.795 859.313 898.677C867.774 894.559 877.813 892.5 889.429 892.5C901.332 892.5 911.371 894.659 919.546 898.978C927.72 903.197 933.887 909.172 938.046 916.906C942.348 924.64 944.499 933.729 944.499 944.175C944.499 951.607 943.352 958.487 941.057 964.814C938.763 971.142 935.249 976.666 930.516 981.386C925.927 986.007 920.119 989.622 913.092 992.234C906.065 994.745 897.891 996 888.569 996ZM888.999 983.948C894.735 983.948 899.755 983.094 904.057 981.386C908.359 979.679 912.016 977.168 915.028 973.854C918.04 970.439 920.263 966.321 921.697 961.5C923.274 956.579 924.063 951.004 924.063 944.777C924.063 936.441 922.772 929.26 920.191 923.234C917.609 917.207 913.666 912.587 908.359 909.373C903.197 906.159 896.743 904.552 888.999 904.552C881.398 904.552 874.945 906.109 869.639 909.223C864.476 912.336 860.532 916.856 857.807 922.782C855.082 928.707 853.72 935.939 853.72 944.476C853.72 950.804 854.437 956.428 855.871 961.349C857.449 966.17 859.743 970.288 862.755 973.703C865.766 977.017 869.423 979.579 873.726 981.386C878.171 983.094 883.263 983.948 888.999 983.948Z" fill="#26FFDF"/>
<path d="M888.999 983.948C894.735 983.948 899.755 983.094 904.057 981.386C908.359 979.679 912.016 977.168 915.028 973.854C918.04 970.439 920.263 966.321 921.697 961.5C923.274 956.579 924.063 951.004 924.063 944.777C924.063 936.441 922.772 929.26 920.191 923.234C917.609 917.207 913.666 912.587 908.359 909.373C903.197 906.159 896.743 904.552 888.999 904.552C881.398 904.552 874.945 906.109 869.639 909.223C864.476 912.336 860.532 916.856 857.807 922.782C855.082 928.707 853.72 935.939 853.72 944.476C853.72 950.804 854.437 956.428 855.871 961.349C857.449 966.17 859.743 970.288 862.755 973.703C865.766 977.017 869.423 979.579 873.726 981.386C878.171 983.094 883.263 983.948 888.999 983.948Z" fill="#26FFDF" fill-opacity="0.1"/>
<path d="M889.43 892C901.391 892 911.515 894.17 919.779 898.536H919.778C928.036 902.798 934.278 908.843 938.486 916.669H938.485C942.834 924.488 944.999 933.662 944.999 944.175C944.999 951.659 943.844 958.598 941.527 964.985C939.208 971.381 935.654 976.966 930.87 981.738L930.871 981.739C926.224 986.418 920.351 990.069 913.267 992.702L913.261 992.704C906.168 995.238 897.934 996.5 888.568 996.5C879.204 996.5 871.04 995.239 864.089 992.703L864.083 992.701C857.141 990.068 851.342 986.416 846.696 981.739C842.056 977.067 838.576 971.582 836.257 965.289L836.253 965.279C834.081 958.994 832.999 952.108 832.999 944.627C832.999 933.711 835.236 924.282 839.732 916.358C844.229 908.435 850.686 902.389 859.091 898.229L859.094 898.228C867.637 894.07 877.755 892 889.43 892Z" stroke="#26FFDF"/>
<path d="M620.07 856.5C610.748 856.5 602.645 855.263 595.762 852.788C588.878 850.215 583.141 846.652 578.552 842.098C573.963 837.545 570.521 832.2 568.227 826.064C566.076 819.927 565 813.196 565 805.871C565 795.181 567.223 785.976 571.669 778.256C576.114 770.535 582.496 764.646 590.814 760.588C599.275 756.529 609.314 754.5 620.93 754.5C632.833 754.5 642.872 756.628 651.047 760.884C659.221 765.042 665.388 770.931 669.547 778.553C673.849 786.174 676 795.132 676 805.426C676 812.751 674.853 819.531 672.558 825.767C670.264 832.002 666.75 837.446 662.017 842.098C657.428 846.652 651.62 850.215 644.593 852.788C637.566 855.263 629.391 856.5 620.07 856.5ZM620.5 844.622C626.236 844.622 631.256 843.781 635.558 842.098C639.86 840.416 643.517 837.941 646.529 834.675C649.541 831.31 651.764 827.251 653.198 822.5C654.775 817.65 655.564 812.157 655.564 806.02C655.564 797.804 654.273 790.727 651.692 784.788C649.11 778.85 645.167 774.296 639.86 771.129C634.698 767.962 628.244 766.378 620.5 766.378C612.899 766.378 606.446 767.912 601.14 770.981C595.977 774.049 592.033 778.503 589.308 784.343C586.583 790.183 585.221 797.31 585.221 805.723C585.221 811.959 585.938 817.502 587.372 822.352C588.95 827.103 591.244 831.161 594.256 834.526C597.267 837.793 600.924 840.317 605.227 842.098C609.672 843.781 614.764 844.622 620.5 844.622Z" fill="#26FFDF"/>
<path d="M620.5 844.622C626.236 844.622 631.256 843.781 635.558 842.098C639.86 840.416 643.517 837.941 646.529 834.675C649.541 831.31 651.764 827.251 653.198 822.5C654.775 817.65 655.564 812.157 655.564 806.02C655.564 797.804 654.273 790.727 651.692 784.788C649.11 778.85 645.167 774.296 639.86 771.129C634.698 767.962 628.244 766.378 620.5 766.378C612.899 766.378 606.446 767.912 601.14 770.981C595.977 774.049 592.033 778.503 589.308 784.343C586.583 790.183 585.221 797.31 585.221 805.723C585.221 811.959 585.938 817.502 587.372 822.352C588.95 827.103 591.244 831.161 594.256 834.526C597.267 837.793 600.924 840.317 605.227 842.098C609.672 843.781 614.764 844.622 620.5 844.622Z" fill="#26FFDF" fill-opacity="0.1"/>
<path d="M620.931 754C632.889 754 643.011 756.138 651.273 760.439L652.042 760.838C659.92 765.013 665.907 770.839 669.985 778.313H669.984C674.334 786.02 676.5 795.064 676.5 805.426C676.5 812.803 675.344 819.643 673.027 825.94C670.707 832.245 667.153 837.751 662.368 842.455L662.367 842.454C657.72 847.065 651.848 850.664 644.765 853.258L644.759 853.26C637.667 855.757 629.434 857 620.069 857C610.705 857 602.543 855.757 595.593 853.259L595.587 853.257C588.646 850.662 582.846 847.063 578.2 842.453C573.559 837.849 570.078 832.442 567.759 826.238L567.755 826.229C565.583 820.033 564.5 813.245 564.5 805.871C564.5 795.111 566.738 785.816 571.235 778.006C575.733 770.196 582.191 764.238 590.595 760.138L590.598 760.137C599.14 756.04 609.257 754 620.931 754Z" stroke="#26FFDF"/>
<path d="M356.071 718.5C346.749 718.5 338.646 717.245 331.763 714.734C324.879 712.122 319.142 708.507 314.553 703.887C309.964 699.267 306.522 693.843 304.228 687.616C302.077 681.389 301.001 674.559 301.001 667.127C301.001 656.28 303.224 646.939 307.67 639.105C312.115 631.271 318.497 625.295 326.815 621.177C335.276 617.059 345.315 615 356.931 615C368.834 615 378.873 617.16 387.047 621.478C395.222 625.697 401.389 631.673 405.547 639.406C409.85 647.14 412.001 656.229 412.001 666.675C412.001 674.107 410.854 680.987 408.559 687.315C406.265 693.642 402.751 699.166 398.018 703.887C393.429 708.507 387.621 712.122 380.594 714.734C373.567 717.245 365.392 718.5 356.071 718.5ZM356.501 706.448C362.237 706.448 367.257 705.594 371.559 703.887C375.861 702.179 379.518 699.668 382.53 696.354C385.542 692.939 387.765 688.821 389.199 684C390.776 679.079 391.565 673.505 391.565 667.277C391.565 658.941 390.274 651.76 387.693 645.734C385.111 639.708 381.168 635.088 375.861 631.874C370.699 628.66 364.245 627.053 356.501 627.053C348.9 627.053 342.447 628.609 337.141 631.723C331.978 634.836 328.034 639.356 325.309 645.282C322.584 651.208 321.222 658.439 321.222 666.976C321.222 673.304 321.939 678.928 323.373 683.85C324.951 688.67 327.245 692.788 330.257 696.203C333.268 699.518 336.925 702.079 341.228 703.887C345.673 705.594 350.765 706.448 356.501 706.448Z" fill="#26FFDF"/>
<path d="M356.501 706.448C362.237 706.448 367.257 705.594 371.559 703.887C375.861 702.179 379.518 699.668 382.53 696.354C385.542 692.939 387.765 688.821 389.199 684C390.776 679.079 391.565 673.505 391.565 667.277C391.565 658.941 390.274 651.76 387.693 645.734C385.111 639.708 381.168 635.088 375.861 631.874C370.699 628.66 364.245 627.053 356.501 627.053C348.9 627.053 342.447 628.609 337.141 631.723C331.978 634.836 328.034 639.356 325.309 645.282C322.584 651.208 321.222 658.439 321.222 666.976C321.222 673.304 321.939 678.928 323.373 683.85C324.951 688.67 327.245 692.788 330.257 696.203C333.268 699.518 336.925 702.079 341.228 703.887C345.673 705.594 350.765 706.448 356.501 706.448Z" fill="#26FFDF" fill-opacity="0.1"/>
<path d="M356.932 614.5C368.893 614.5 379.017 616.67 387.281 621.036H387.28C395.538 625.298 401.78 631.343 405.988 639.169H405.987C410.336 646.988 412.501 656.162 412.501 666.675C412.501 674.159 411.346 681.098 409.029 687.486C406.71 693.881 403.156 699.466 398.372 704.238L398.373 704.239C393.726 708.918 387.853 712.57 380.769 715.202L380.763 715.204C373.67 717.739 365.436 719 356.07 719C346.706 719 338.542 717.739 331.591 715.203L331.585 715.201C324.643 712.568 318.844 708.916 314.198 704.239C309.558 699.568 306.078 694.082 303.759 687.789L303.755 687.779C301.583 681.494 300.501 674.608 300.501 667.127C300.501 656.211 302.738 646.782 307.234 638.859C311.731 630.935 318.188 624.889 326.593 620.729L326.596 620.728C335.139 616.57 345.257 614.5 356.932 614.5Z" stroke="#26FFDF"/>
<path d="M542.069 441C532.747 441 524.644 439.745 517.761 437.234C510.877 434.622 505.141 431.007 500.551 426.386C495.962 421.766 492.52 416.343 490.226 410.116C488.075 403.889 486.999 397.059 486.999 389.627C486.999 378.779 489.222 369.439 493.668 361.605C498.113 353.771 504.495 347.795 512.813 343.677C521.274 339.559 531.313 337.5 542.929 337.5C554.832 337.5 564.871 339.659 573.046 343.978C581.22 348.197 587.387 354.172 591.546 361.906C595.848 369.64 597.999 378.729 597.999 389.175C597.999 396.607 596.852 403.487 594.557 409.814C592.263 416.142 588.749 421.666 584.016 426.386C579.427 431.007 573.619 434.622 566.592 437.234C559.565 439.745 551.391 441 542.069 441ZM542.499 428.948C548.235 428.948 553.255 428.094 557.557 426.386C561.859 424.679 565.516 422.168 568.528 418.854C571.54 415.439 573.763 411.321 575.197 406.5C576.774 401.579 577.563 396.004 577.563 389.777C577.563 381.441 576.272 374.26 573.691 368.234C571.109 362.207 567.166 357.587 561.859 354.373C556.697 351.159 550.243 349.552 542.499 349.552C534.898 349.552 528.445 351.109 523.139 354.223C517.976 357.336 514.032 361.856 511.307 367.782C508.582 373.707 507.22 380.939 507.22 389.476C507.22 395.804 507.937 401.428 509.371 406.349C510.949 411.17 513.243 415.288 516.255 418.703C519.266 422.017 522.923 424.579 527.226 426.386C531.671 428.094 536.763 428.948 542.499 428.948Z" fill="#26FFDF"/>
<path d="M542.499 428.948C548.235 428.948 553.255 428.094 557.557 426.386C561.859 424.679 565.516 422.168 568.528 418.854C571.54 415.439 573.763 411.321 575.197 406.5C576.774 401.579 577.563 396.004 577.563 389.777C577.563 381.441 576.272 374.26 573.691 368.234C571.109 362.207 567.166 357.587 561.859 354.373C556.697 351.159 550.243 349.552 542.499 349.552C534.898 349.552 528.445 351.109 523.139 354.223C517.976 357.336 514.032 361.856 511.307 367.782C508.582 373.707 507.22 380.939 507.22 389.476C507.22 395.804 507.937 401.428 509.371 406.349C510.949 411.17 513.243 415.288 516.255 418.703C519.266 422.017 522.923 424.579 527.226 426.386C531.671 428.094 536.763 428.948 542.499 428.948Z" fill="#26FFDF" fill-opacity="0.1"/>
<path d="M542.93 337C554.891 337 565.015 339.17 573.279 343.536H573.278C581.536 347.798 587.778 353.843 591.986 361.669H591.985C596.334 369.488 598.499 378.662 598.499 389.175C598.499 396.659 597.344 403.598 595.027 409.985C592.708 416.381 589.154 421.966 584.37 426.738L584.371 426.739C579.724 431.418 573.851 435.069 566.767 437.702L566.761 437.704C559.668 440.238 551.434 441.5 542.068 441.5C532.704 441.5 524.54 440.239 517.589 437.703L517.583 437.701C510.641 435.068 504.842 431.416 500.196 426.739C495.556 422.067 492.076 416.582 489.757 410.289L489.753 410.279C487.581 403.994 486.499 397.108 486.499 389.627C486.499 378.711 488.736 369.282 493.232 361.358C497.729 353.435 504.186 347.389 512.591 343.229L512.594 343.228C521.137 339.07 531.255 337 542.93 337Z" stroke="#26FFDF"/>
<path d="M855.571 304.5C846.249 304.5 838.146 303.244 831.263 300.734C824.379 298.122 818.642 294.506 814.053 289.886C809.464 285.266 806.022 279.843 803.728 273.616C801.577 267.389 800.501 260.559 800.501 253.127C800.501 242.279 802.724 232.939 807.17 225.105C811.615 217.271 817.997 211.295 826.315 207.177C834.776 203.059 844.815 201 856.431 201C868.334 201 878.373 203.159 886.547 207.478C894.722 211.696 900.889 217.672 905.047 225.406C909.35 233.14 911.501 242.229 911.501 252.675C911.501 260.107 910.354 266.987 908.059 273.314C905.765 279.642 902.251 285.166 897.518 289.886C892.929 294.506 887.121 298.122 880.094 300.734C873.067 303.244 864.892 304.5 855.571 304.5ZM856.001 292.447C861.737 292.447 866.757 291.594 871.059 289.886C875.361 288.179 879.018 285.668 882.03 282.354C885.042 278.939 887.265 274.821 888.699 270C890.276 265.078 891.065 259.504 891.065 253.277C891.065 244.941 889.774 237.76 887.193 231.734C884.611 225.707 880.668 221.087 875.361 217.873C870.199 214.659 863.745 213.052 856.001 213.052C848.4 213.052 841.947 214.609 836.641 217.723C831.478 220.836 827.534 225.356 824.809 231.282C822.084 237.207 820.722 244.439 820.722 252.976C820.722 259.303 821.439 264.928 822.873 269.849C824.451 274.67 826.745 278.788 829.757 282.203C832.768 285.517 836.425 288.078 840.728 289.886C845.173 291.594 850.265 292.447 856.001 292.447Z" fill="#26FFDF"/>
<path d="M856.001 292.447C861.737 292.447 866.757 291.594 871.059 289.886C875.361 288.179 879.018 285.668 882.03 282.354C885.042 278.939 887.265 274.821 888.699 270C890.276 265.078 891.065 259.504 891.065 253.277C891.065 244.941 889.774 237.76 887.193 231.734C884.611 225.707 880.668 221.087 875.361 217.873C870.199 214.659 863.745 213.052 856.001 213.052C848.4 213.052 841.947 214.609 836.641 217.723C831.478 220.836 827.534 225.356 824.809 231.282C822.084 237.207 820.722 244.439 820.722 252.976C820.722 259.303 821.439 264.928 822.873 269.849C824.451 274.67 826.745 278.788 829.757 282.203C832.768 285.517 836.425 288.078 840.728 289.886C845.173 291.594 850.265 292.447 856.001 292.447Z" fill="#26FFDF" fill-opacity="0.1"/>
<path d="M856.432 200.5C868.393 200.5 878.517 202.67 886.781 207.036H886.78C895.038 211.298 901.28 217.343 905.488 225.169H905.487C909.836 232.988 912.001 242.162 912.001 252.675C912.001 260.159 910.846 267.098 908.529 273.485C906.21 279.88 902.656 285.466 897.872 290.238L897.873 290.239C893.226 294.918 887.353 298.569 880.269 301.202L880.263 301.204C873.17 303.738 864.936 305 855.57 305C846.206 305 838.042 303.739 831.091 301.203L831.085 301.201C824.143 298.568 818.344 294.916 813.698 290.239C809.058 285.567 805.578 280.082 803.259 273.789L803.255 273.779C801.083 267.493 800.001 260.608 800.001 253.127C800.001 242.211 802.238 232.781 806.734 224.858C811.231 216.935 817.688 210.889 826.093 206.728L826.096 206.727C834.639 202.569 844.757 200.5 856.432 200.5Z" stroke="#26FFDF"/>
</svg>
