<svg width="490" height="999" viewBox="0 0 490 999" fill="none" xmlns="http://www.w3.org/2000/svg">
<path fill-rule="evenodd" clip-rule="evenodd" d="M109.046 534.967C109.59 535.431 110.15 535.897 110.722 536.363C92.8355 537.987 78.8462 552.321 78.8462 569.763V603.317C78.8462 621.848 63.0552 636.87 43.576 636.87H40.2702C20.791 636.87 5 651.893 5 670.424V703.977C5 722.509 20.791 737.531 40.2701 737.531H80.4991C99.9782 737.531 115.769 722.509 115.769 703.977V620.88C115.769 611.18 124.035 603.317 134.231 603.317C144.427 603.317 152.692 611.18 152.692 620.88V737.531C152.692 756.062 136.901 771.085 117.422 771.085H114.116C94.6372 771.085 78.8462 786.107 78.8462 804.638V838.192C78.8462 856.723 94.6371 871.745 114.116 871.745H154.345C173.824 871.745 189.615 856.723 189.615 838.192V654.433C189.615 644.733 197.881 636.87 208.077 636.87C218.273 636.87 226.538 644.733 226.538 654.433V960.446C226.538 978.977 242.329 994 261.809 994H302.038C321.517 994 337.308 978.977 337.308 960.446V926.893C337.308 908.362 321.517 893.339 302.038 893.339H298.732C279.253 893.339 263.462 878.317 263.462 859.786V654.433C263.462 644.733 271.727 636.87 281.923 636.87C292.119 636.87 300.385 644.733 300.385 654.433V838.192C300.385 856.723 316.176 871.745 335.655 871.745H375.884C395.363 871.745 411.154 856.723 411.154 838.192V804.638C411.154 786.107 395.363 771.085 375.884 771.085H372.578C353.099 771.085 337.308 756.062 337.308 737.531V587.326C337.308 577.626 345.573 569.763 355.769 569.763C365.965 569.763 374.231 577.626 374.231 587.326V670.424C374.231 688.955 390.022 703.977 409.501 703.977H449.73C469.209 703.977 485 688.955 485 670.424V636.87C485 618.339 469.209 603.317 449.73 603.317H446.424C426.945 603.317 411.154 588.294 411.154 569.763C411.154 552.229 397.016 537.836 378.994 536.338C379.311 536.096 379.624 535.854 379.933 535.613C383.691 532.676 386.927 529.72 389.216 526.85C391.446 524.055 393.007 521.048 392.917 518.052C392.917 513.34 393.167 508.668 393.641 504.056L393.926 501.59C395.514 488.811 399.787 469.607 405.462 450.861C410.798 433.237 415.845 417.443 423.763 405.6C426.532 400.884 429.359 398.247 431.734 393.69C449.222 348.343 449.222 310.115 449.222 310.115L449.824 173.696C449.822 81.9335 361.039 7.36668 250.598 5.05734L245.325 5C133.561 5.00115 47.6552 69.8371 41.3178 171.254V176.591L42.0231 312.398C42.0231 312.398 43.576 385.052 59.4767 402.327L67.5126 411.683C75.3657 423.921 81.4561 439.307 86.7662 456.746C92.5087 475.607 96.4537 495.052 97.3924 508.575L97.64 513.298C97.6945 514.861 97.7199 516.436 97.7204 518.01C97.6661 520.92 99.0097 523.841 100.988 526.59C102.986 529.364 105.795 532.19 109.046 534.967ZM282.75 926.893C292.489 926.893 300.385 934.404 300.385 943.67C300.385 952.935 292.489 960.446 282.75 960.446H281.097C271.357 960.446 263.462 952.935 263.462 943.67C263.462 934.404 271.357 926.893 281.097 926.893H282.75ZM135.057 804.638C144.797 804.638 152.692 812.149 152.692 821.415C152.692 830.68 144.797 838.192 135.057 838.192H133.404C123.665 838.192 115.769 830.68 115.769 821.415C115.769 812.149 123.665 804.638 133.404 804.638H135.057ZM61.2111 670.424C70.9507 670.424 78.8462 677.935 78.8462 687.201C78.8462 696.466 70.9507 703.977 61.2111 703.977H59.5582C49.8186 703.977 41.9231 696.466 41.9231 687.201C41.9231 677.935 49.8186 670.424 59.5582 670.424H61.2111ZM356.596 804.638C366.335 804.638 374.231 812.149 374.231 821.415C374.231 830.68 366.335 838.192 356.596 838.192H354.943C345.203 838.192 337.308 830.68 337.308 821.415C337.308 812.149 345.203 804.638 354.943 804.638H356.596ZM430.442 636.87C440.181 636.87 448.077 644.381 448.077 653.647C448.077 662.913 440.181 670.424 430.442 670.424H428.789C419.049 670.424 411.154 662.913 411.154 653.647C411.154 644.381 419.049 636.87 428.789 636.87H430.442Z" fill="#025159" fill-opacity="0.57"/>
<path d="M59.4767 402.327C43.576 385.052 42.0231 312.398 42.0231 312.398L41.3178 176.591V171.254C47.6552 69.8371 133.561 5.00115 245.325 5L250.598 5.05734C361.039 7.36668 449.822 81.9335 449.824 173.696L449.222 310.115C449.222 310.115 449.222 348.343 431.734 393.69C429.359 398.247 426.532 400.884 423.763 405.6C415.845 417.443 410.798 433.237 405.462 450.861C399.787 469.607 395.514 488.811 393.926 501.59L393.641 504.056C393.167 508.668 392.917 513.34 392.917 518.052C393.007 521.048 391.446 524.054 389.216 526.85C386.927 529.72 383.691 532.676 379.933 535.613C379.624 535.854 379.311 536.096 378.994 536.338C397.016 537.836 411.154 552.229 411.154 569.763C411.154 588.294 426.945 603.317 446.424 603.317H449.73C469.209 603.317 485 618.339 485 636.87V670.424C485 688.955 469.209 703.977 449.73 703.977H409.501C390.022 703.977 374.231 688.955 374.231 670.424V587.326C374.231 577.626 365.965 569.763 355.769 569.763C345.573 569.763 337.308 577.626 337.308 587.326V737.531C337.308 756.062 353.099 771.085 372.578 771.085H375.884C395.363 771.085 411.154 786.107 411.154 804.638V838.192C411.154 856.723 395.363 871.745 375.884 871.745H335.655C316.176 871.745 300.385 856.723 300.385 838.192V654.433C300.385 644.733 292.119 636.87 281.923 636.87C271.727 636.87 263.462 644.733 263.462 654.433V859.786C263.462 878.317 279.253 893.339 298.732 893.339H302.038C321.517 893.339 337.308 908.362 337.308 926.893V960.446C337.308 978.978 321.517 994 302.038 994H261.809C242.329 994 226.538 978.978 226.538 960.446V654.433C226.538 644.733 218.273 636.87 208.077 636.87C197.881 636.87 189.615 644.733 189.615 654.433V838.192C189.615 856.723 173.824 871.745 154.345 871.745H114.116C94.6371 871.745 78.8462 856.723 78.8462 838.192V804.638C78.8462 786.107 94.6372 771.085 114.116 771.085H117.422C136.901 771.085 152.692 756.062 152.692 737.531V620.88C152.692 611.18 144.427 603.317 134.231 603.317C124.035 603.317 115.769 611.18 115.769 620.88V703.977C115.769 722.509 99.9782 737.531 80.4991 737.531H40.2701C20.791 737.531 5 722.509 5 703.977V670.424C5 651.893 20.791 636.87 40.2702 636.87H43.576C63.0552 636.87 78.8462 621.848 78.8462 603.317V569.763C78.8462 552.321 92.8355 537.987 110.722 536.363C110.15 535.897 109.59 535.431 109.046 534.967C105.795 532.19 102.986 529.364 100.988 526.59C99.0097 523.841 97.6661 520.92 97.7204 518.01C97.7199 516.436 97.6945 514.861 97.64 513.298L97.3924 508.575C96.4537 495.052 92.5087 475.607 86.7662 456.746C81.4561 439.307 75.3657 423.921 67.5126 411.683M59.4767 402.327C59.4767 402.327 59.4767 402.327 67.5126 411.683M59.4767 402.327L67.5126 411.683M300.385 943.67C300.385 934.404 292.489 926.893 282.75 926.893H281.097C271.357 926.893 263.462 934.404 263.462 943.67C263.462 952.935 271.357 960.446 281.097 960.446H282.75C292.489 960.446 300.385 952.935 300.385 943.67ZM152.692 821.415C152.692 812.149 144.797 804.638 135.057 804.638H133.404C123.665 804.638 115.769 812.149 115.769 821.415C115.769 830.68 123.665 838.192 133.404 838.192H135.057C144.797 838.192 152.692 830.68 152.692 821.415ZM78.8462 687.201C78.8462 677.935 70.9507 670.424 61.2111 670.424H59.5582C49.8186 670.424 41.9231 677.935 41.9231 687.201C41.9231 696.466 49.8186 703.977 59.5582 703.977H61.2111C70.9507 703.977 78.8462 696.466 78.8462 687.201ZM374.231 821.415C374.231 812.149 366.335 804.638 356.596 804.638H354.943C345.203 804.638 337.308 812.149 337.308 821.415C337.308 830.68 345.203 838.192 354.943 838.192H356.596C366.335 838.192 374.231 830.68 374.231 821.415ZM448.077 653.647C448.077 644.381 440.181 636.87 430.442 636.87H428.789C419.049 636.87 411.154 644.381 411.154 653.647C411.154 662.913 419.049 670.424 428.789 670.424H430.442C440.181 670.424 448.077 662.913 448.077 653.647Z" stroke="#E9EBF8" stroke-width="10" stroke-linejoin="round"/>
<path d="M59.4767 402.327C43.576 385.052 42.0231 312.398 42.0231 312.398L41.3178 176.591V171.254C47.6552 69.8371 133.561 5.00115 245.325 5L250.598 5.05734C361.039 7.36668 449.822 81.9335 449.824 173.696L449.222 310.115C449.222 310.115 449.222 348.343 431.734 393.69C429.359 398.247 426.532 400.884 423.763 405.6C415.845 417.443 410.798 433.237 405.462 450.861C399.787 469.607 395.514 488.811 393.926 501.59L393.641 504.056C393.167 508.668 392.917 513.34 392.917 518.052C393.007 521.048 391.446 524.054 389.216 526.85C386.927 529.72 383.691 532.676 379.933 535.613C379.624 535.854 379.311 536.096 378.994 536.338C397.016 537.836 411.154 552.229 411.154 569.763C411.154 588.294 426.945 603.317 446.424 603.317H449.73C469.209 603.317 485 618.339 485 636.87V670.424C485 688.955 469.209 703.977 449.73 703.977H409.501C390.022 703.977 374.231 688.955 374.231 670.424V587.326C374.231 577.626 365.965 569.763 355.769 569.763C345.573 569.763 337.308 577.626 337.308 587.326V737.531C337.308 756.062 353.099 771.085 372.578 771.085H375.884C395.363 771.085 411.154 786.107 411.154 804.638V838.192C411.154 856.723 395.363 871.745 375.884 871.745H335.655C316.176 871.745 300.385 856.723 300.385 838.192V654.433C300.385 644.733 292.119 636.87 281.923 636.87C271.727 636.87 263.462 644.733 263.462 654.433V859.786C263.462 878.317 279.253 893.339 298.732 893.339H302.038C321.517 893.339 337.308 908.362 337.308 926.893V960.446C337.308 978.978 321.517 994 302.038 994H261.809C242.329 994 226.538 978.978 226.538 960.446V654.433C226.538 644.733 218.273 636.87 208.077 636.87C197.881 636.87 189.615 644.733 189.615 654.433V838.192C189.615 856.723 173.824 871.745 154.345 871.745H114.116C94.6371 871.745 78.8462 856.723 78.8462 838.192V804.638C78.8462 786.107 94.6372 771.085 114.116 771.085H117.422C136.901 771.085 152.692 756.062 152.692 737.531V620.88C152.692 611.18 144.427 603.317 134.231 603.317C124.035 603.317 115.769 611.18 115.769 620.88V703.977C115.769 722.509 99.9782 737.531 80.4991 737.531H40.2701C20.791 737.531 5 722.509 5 703.977V670.424C5 651.893 20.791 636.87 40.2702 636.87H43.576C63.0552 636.87 78.8462 621.848 78.8462 603.317V569.763C78.8462 552.321 92.8355 537.987 110.722 536.363C110.15 535.897 109.59 535.431 109.046 534.967C105.795 532.19 102.986 529.364 100.988 526.59C99.0097 523.841 97.6661 520.92 97.7204 518.01C97.7199 516.436 97.6945 514.861 97.64 513.298L97.3924 508.575C96.4537 495.052 92.5087 475.607 86.7662 456.746C81.4561 439.307 75.3657 423.921 67.5126 411.683M59.4767 402.327C59.4767 402.327 59.4767 402.327 67.5126 411.683M59.4767 402.327L67.5126 411.683M300.385 943.67C300.385 934.404 292.489 926.893 282.75 926.893H281.097C271.357 926.893 263.462 934.404 263.462 943.67C263.462 952.935 271.357 960.446 281.097 960.446H282.75C292.489 960.446 300.385 952.935 300.385 943.67ZM152.692 821.415C152.692 812.149 144.797 804.638 135.057 804.638H133.404C123.665 804.638 115.769 812.149 115.769 821.415C115.769 830.68 123.665 838.192 133.404 838.192H135.057C144.797 838.192 152.692 830.68 152.692 821.415ZM78.8462 687.201C78.8462 677.935 70.9507 670.424 61.2111 670.424H59.5582C49.8186 670.424 41.9231 677.935 41.9231 687.201C41.9231 696.466 49.8186 703.977 59.5582 703.977H61.2111C70.9507 703.977 78.8462 696.466 78.8462 687.201ZM374.231 821.415C374.231 812.149 366.335 804.638 356.596 804.638H354.943C345.203 804.638 337.308 812.149 337.308 821.415C337.308 830.68 345.203 838.192 354.943 838.192H356.596C366.335 838.192 374.231 830.68 374.231 821.415ZM448.077 653.647C448.077 644.381 440.181 636.87 430.442 636.87H428.789C419.049 636.87 411.154 644.381 411.154 653.647C411.154 662.913 419.049 670.424 428.789 670.424H430.442C440.181 670.424 448.077 662.913 448.077 653.647Z" stroke="#26FFDF" stroke-width="10" stroke-linejoin="round"/>
<path d="M177.995 277.04C178.23 274.769 180.32 273.142 182.546 273.65C193.651 276.184 203.537 281.971 210.588 290.144C218.501 299.315 222.263 310.817 221.127 322.361C219.991 333.905 214.04 344.645 204.458 352.444C194.876 360.243 182.365 364.529 169.416 364.449C156.466 364.368 144.027 359.928 134.574 352.012C125.121 344.095 119.346 333.282 118.4 321.725C117.453 310.168 121.404 298.714 129.466 289.642C136.719 281.48 146.821 275.785 158.095 273.429C160.206 272.988 162.199 274.454 162.567 276.58L165.667 294.49C166.052 296.718 164.499 298.791 162.344 299.473C158.415 300.717 154.924 302.928 152.296 305.886C148.798 309.822 147.084 314.792 147.495 319.806C147.906 324.82 150.411 329.512 154.513 332.947C158.614 336.382 164.011 338.308 169.63 338.343C175.248 338.378 180.676 336.518 184.834 333.134C188.991 329.751 191.573 325.091 192.066 320.082C192.559 315.073 190.927 310.083 187.494 306.104C184.918 303.118 182.723 300.84 179.447 299.534C177.463 298.742 175.938 296.891 176.159 294.767L177.995 277.04Z" fill="#32E7E1" fill-opacity="0.51" stroke="#26FFDF" stroke-width="5" stroke-linejoin="round"/>
<path d="M327.021 277.051C327.256 274.781 329.346 273.154 331.572 273.663C342.677 276.198 352.564 281.988 359.618 290.162C367.532 299.334 371.297 310.837 370.164 322.381C369.031 333.925 363.082 344.664 353.502 352.461C343.921 360.258 331.412 364.541 318.462 364.458C305.512 364.376 293.072 359.933 283.617 352.015C274.162 344.096 268.385 333.283 267.436 321.725C266.487 310.168 270.435 298.715 278.495 289.644C285.746 281.484 295.847 275.79 307.12 273.437C309.232 272.996 311.225 274.463 311.593 276.589L314.697 294.499C315.083 296.727 313.53 298.8 311.375 299.482C307.447 300.725 303.957 302.935 301.329 305.892C297.832 309.828 296.119 314.797 296.531 319.812C296.943 324.826 299.449 329.518 303.552 332.954C307.654 336.389 313.052 338.317 318.67 338.353C324.289 338.389 329.716 336.53 333.873 333.147C338.03 329.764 340.611 325.105 341.103 320.096C341.594 315.088 339.961 310.097 336.527 306.117C333.95 303.131 331.755 300.852 328.479 299.546C326.495 298.754 324.969 296.902 325.189 294.778L327.021 277.051Z" fill="#32E7E1" fill-opacity="0.5" stroke="#26FFDF" stroke-width="5" stroke-linejoin="round"/>
<rect x="69.998" y="249" width="350.001" height="133.4" rx="10" fill="#32E7E1" fill-opacity="0.19"/>
<rect x="69.998" y="249" width="350.001" height="133.4" rx="10" stroke="#26FFDF" stroke-width="10" stroke-linejoin="round"/>
<rect x="69.998" y="249" width="350.001" height="133.4" rx="10" stroke="#26FFDF" stroke-width="10" stroke-linejoin="round"/>
</svg>
