<svg width="53" height="53" viewBox="0 0 53 53" fill="none" xmlns="http://www.w3.org/2000/svg">
<g clip-path="url(#clip0_167_18)">
<path d="M26.4387 0C17.8632 0.215865 9.38985 2.50646 1.79042 6.46324C2.63014 15.1519 5.30001 23.6352 9.83096 31.095C10.6337 32.4299 11.4955 33.7295 12.4097 34.9894C10.6944 32.2461 9.30041 29.3013 8.28733 26.2212C6.48644 20.7959 5.73505 15.0051 6.026 9.29929C12.0868 5.67928 19.011 3.44334 26.0329 2.67264C34.5146 1.74072 43.29 2.94205 51.1323 6.31142C43.5119 2.38776 35.0142 0.164521 26.4387 0ZM51.1323 6.31142C47.4334 5.1134 43.6516 4.2389 39.8234 3.73153C28.312 2.173 16.472 4.24 6.02655 9.29929C12.4103 6.29982 19.4041 4.62259 26.4536 4.41059C33.5032 4.57511 40.5069 6.20707 46.9083 9.16679C48.2416 18.1161 46.719 27.5015 42.6065 35.5641C40.9425 38.897 38.8032 42.0318 36.3348 44.8176C33.5209 48.0009 30.242 50.7823 26.6226 52.9978C26.7446 52.9304 27.7455 52.3761 28.2087 52.1111L28.9513 51.6761C30.8653 50.5267 32.7032 49.2458 34.4395 47.8402C46.8625 37.8873 52.5981 21.9795 51.1323 6.31142ZM44.7591 26.1036C41.9302 34.8861 36.0273 42.5949 28.3291 47.6785C27.7781 48.0478 27.178 48.4282 26.5988 48.7782C19.4289 44.6459 13.3742 38.6166 9.08289 31.5494C4.51495 24.0377 1.89918 15.2519 1.79042 6.46324C0.408554 22.1352 6.26561 38.0236 18.7493 47.8905C20.4928 49.2856 22.3368 50.5543 24.2597 51.691L25.005 52.1216C25.5035 52.401 26.6093 53.005 26.6093 53.005C26.6104 53.005 26.6104 53.0039 26.6121 53.0039C28.3131 51.7407 29.945 50.3969 31.4826 48.9593C34.9375 45.7307 37.9326 42.0097 40.3363 37.9397C45.4205 29.3173 47.5802 19.1258 46.9083 9.16679C47.2374 14.8698 46.5246 20.6667 44.7591 26.1036Z" fill="#1E7D7D"/>
<mask id="mask0_167_18" style="mask-type:luminance" maskUnits="userSpaceOnUse" x="9" y="6" width="35" height="35">
<path d="M9.59521 6.9209H43.4048V40.7305H9.59521V6.9209Z" fill="white"/>
</mask>
<g mask="url(#mask0_167_18)">
<mask id="mask1_167_18" style="mask-type:luminance" maskUnits="userSpaceOnUse" x="9" y="6" width="35" height="35">
<path d="M26.5 6.9209C17.1637 6.9209 9.59521 14.4894 9.59521 23.8257C9.59521 33.162 17.1637 40.7305 26.5 40.7305C35.8363 40.7305 43.4048 33.162 43.4048 23.8257C43.4048 14.4894 35.8363 6.9209 26.5 6.9209Z" fill="white"/>
</mask>
<g mask="url(#mask1_167_18)">
<path d="M9.59521 6.9209H43.4048V40.7305H9.59521V6.9209Z" fill="#1E7D7D"/>
</g>
</g>
<mask id="mask2_167_18" style="mask-type:luminance" maskUnits="userSpaceOnUse" x="16" y="11" width="21" height="26">
<path d="M16.144 11.1963H36.814V36.4243H16.144V11.1963Z" fill="white"/>
</mask>
<g mask="url(#mask2_167_18)">
<path fill-rule="evenodd" clip-rule="evenodd" d="M34.5797 22.0149C34.3158 22.1502 34.0277 22.2799 33.7235 22.4003C33.6644 22.4235 33.6037 22.4345 33.544 22.4345C33.3492 22.4345 33.1648 22.3164 33.0886 22.1226C32.9897 21.8697 33.1134 21.5837 33.3646 21.4838C33.6401 21.3751 33.8996 21.2586 34.1359 21.1377C34.3766 21.014 34.6714 21.1106 34.794 21.353C34.9165 21.5953 34.8205 21.8918 34.5797 22.0149ZM22.5217 22.7746C22.4759 23.0098 22.271 23.1726 22.0414 23.1726C22.0105 23.1726 21.979 23.1699 21.9475 23.1633C21.5743 23.0904 21.2083 23.007 20.8605 22.9159C20.5988 22.8475 20.442 22.5786 20.5099 22.3158C20.5778 22.0525 20.845 21.8946 21.1067 21.963C21.4352 22.0486 21.7813 22.1275 22.1347 22.1971C22.4002 22.249 22.573 22.5074 22.5217 22.7746ZM19.9004 22.1226C19.8242 22.3164 19.6398 22.4345 19.4449 22.4345C19.3853 22.4345 19.3246 22.4235 19.2655 22.4003C18.9613 22.2799 18.6731 22.1502 18.4092 22.0149C18.1685 21.8918 18.0725 21.5953 18.195 21.353C18.3176 21.1106 18.6124 21.014 18.8531 21.1377C19.0894 21.2586 19.3489 21.3751 19.6244 21.4838C19.8756 21.5837 19.9992 21.8697 19.9004 22.1226ZM34.3909 19.4256C35.4206 18.9669 36.2376 18.4275 36.8223 17.8323V21.5882C36.5424 22.4759 35.5525 23.3449 34.0105 24.0322C32.0109 24.9227 29.3416 25.413 26.4945 25.413C23.6474 25.413 20.9781 24.9227 18.9784 24.0322C17.4365 23.3449 16.4466 22.4759 16.1672 21.5882V17.8323C16.7519 18.4275 17.569 18.9669 18.598 19.4256C20.7153 20.3686 23.5199 20.8881 26.4945 20.8881C29.4697 20.8881 32.2737 20.3686 34.3909 19.4256ZM33.6246 12.3402C35.6911 13.138 36.8295 14.2648 36.8295 15.513C36.8295 16.7613 35.6911 17.8881 33.6246 18.6859C31.7128 19.4245 29.1804 19.8309 26.4945 19.8309C23.8086 19.8309 21.2762 19.4245 19.3643 18.6859C17.2973 17.8881 16.1595 16.7613 16.1595 15.513C16.1595 14.2648 17.2973 13.138 19.3643 12.3402C21.2762 11.6015 23.8086 11.1952 26.4945 11.1952C29.1804 11.1952 31.7128 11.6015 33.6246 12.3402ZM34.794 26.8396C34.9165 27.0819 34.8205 27.3784 34.5797 27.5015C34.3158 27.6368 34.0277 27.766 33.7235 27.8869C33.6644 27.9101 33.6037 27.9211 33.544 27.9211C33.3492 27.9211 33.1648 27.803 33.0886 27.6092C32.9897 27.3563 33.1134 27.0703 33.3646 26.9704C33.6401 26.8617 33.8996 26.7446 34.1359 26.6237C34.3766 26.5006 34.6714 26.5972 34.794 26.8396ZM22.5217 28.2612C22.4759 28.4958 22.271 28.6592 22.0414 28.6592C22.0105 28.6592 21.979 28.6559 21.9475 28.6499C21.5743 28.5764 21.2083 28.4936 20.8605 28.4025C20.5988 28.3341 20.442 28.0652 20.5099 27.8019C20.5778 27.5391 20.845 27.3812 21.1067 27.4491C21.4352 27.5352 21.7813 27.6141 22.1347 27.6832C22.4002 27.7356 22.573 27.994 22.5217 28.2612ZM19.9004 27.6092C19.8242 27.803 19.6398 27.9211 19.4449 27.9211C19.3853 27.9211 19.3246 27.9101 19.2655 27.8869C18.9613 27.766 18.6731 27.6368 18.4092 27.5015C18.1685 27.3784 18.0725 27.0819 18.195 26.8396C18.3176 26.5972 18.6124 26.5006 18.8531 26.6237C19.0894 26.7446 19.3489 26.8617 19.6244 26.9704C19.8756 27.0703 19.9992 27.3558 19.9004 27.6092ZM26.4945 26.4487C23.5199 26.4487 20.7153 25.9297 18.598 24.9862C17.569 24.528 16.7519 23.9886 16.1672 23.3935V27.1493C16.4466 28.037 17.4365 28.906 18.9784 29.5928C20.9781 30.4839 23.6474 30.9741 26.4945 30.9741C29.3416 30.9741 32.0109 30.4839 34.0105 29.5928C35.5525 28.906 36.5424 28.037 36.8223 27.1493V23.3935C36.2376 23.9886 35.4206 24.528 34.3909 24.9862C32.2737 25.9297 29.4697 26.4487 26.4945 26.4487ZM34.794 32.5166C34.9165 32.7585 34.8205 33.0549 34.5797 33.1786C34.3158 33.3133 34.0277 33.443 33.7235 33.5639C33.6644 33.5871 33.6037 33.5982 33.544 33.5982C33.3492 33.5982 33.1648 33.48 33.0886 33.2863C32.9897 33.0328 33.1134 32.7474 33.3646 32.6475C33.6401 32.5382 33.8996 32.4217 34.1359 32.3008C34.3766 32.1777 34.6714 32.2743 34.794 32.5166ZM22.5217 33.9383C22.4759 34.1729 22.271 34.3363 22.0414 34.3363C22.0105 34.3363 21.979 34.333 21.9475 34.3269C21.5743 34.2535 21.2083 34.1707 20.8605 34.0796C20.5988 34.0111 20.442 33.7423 20.5099 33.4789C20.5778 33.2161 20.845 33.0582 21.1067 33.1261C21.4352 33.2123 21.7813 33.2912 22.1347 33.3602C22.4002 33.4127 22.573 33.6711 22.5217 33.9383ZM19.9004 33.2863C19.8242 33.48 19.6398 33.5982 19.4449 33.5982C19.3853 33.5982 19.3246 33.5871 19.2655 33.5639C18.9613 33.443 18.6731 33.3133 18.4092 33.1786C18.1685 33.0549 18.0725 32.7585 18.195 32.5166C18.3176 32.2737 18.6124 32.1777 18.8531 32.3008C19.0894 32.4217 19.3489 32.5382 19.6244 32.6475C19.8756 32.7474 19.9992 33.0328 19.9004 33.2863ZM26.4945 31.9204C23.5199 31.9204 20.7153 31.4014 18.598 30.4579C17.569 29.9997 16.7519 29.4603 16.1672 28.8652V32.621C16.4466 33.5087 17.4365 34.3777 18.9784 35.0645C20.9781 35.9556 23.6474 36.4458 26.4945 36.4458C29.3416 36.4458 32.0109 35.9556 34.0105 35.0645C35.5525 34.3777 36.5424 33.5087 36.8223 32.6204V28.8652C36.2376 29.4603 35.4206 29.9997 34.3909 30.4579C32.2737 31.4014 29.4697 31.9204 26.4945 31.9204Z" fill="white"/>
</g>
</g>
<defs>
<clipPath id="clip0_167_18">
<rect width="53" height="53" fill="white"/>
</clipPath>
</defs>
</svg>
