<svg width="64" height="64" viewBox="0 0 64 64" fill="none" xmlns="http://www.w3.org/2000/svg">
<g clip-path="url(#clip0_1034_8)">
<path d="M54.1787 11.6528C50.0294 9.74814 45.6505 8.38996 41.1517 7.61224C41.1109 7.60461 41.0686 7.61007 41.0311 7.62783C40.9935 7.6456 40.9625 7.67476 40.9424 7.71117C40.3797 8.71197 39.7565 10.0173 39.3203 11.0432C34.4011 10.3066 29.5069 10.3066 24.6888 11.0432C24.2525 9.99437 23.6067 8.71197 23.0416 7.71117C23.0207 7.67559 22.9895 7.64714 22.9522 7.62954C22.9148 7.61194 22.873 7.606 22.8323 7.61251C18.333 8.38842 13.9539 9.74648 9.80508 11.6525C9.76958 11.6677 9.73967 11.6935 9.71948 11.7264C1.42241 24.1221 -0.850656 36.213 0.264544 48.1541C0.267697 48.1833 0.276686 48.2116 0.290977 48.2373C0.305268 48.263 0.324572 48.2856 0.347744 48.3037C5.82188 52.324 11.1245 54.7645 16.3288 56.3821C16.3693 56.3942 16.4125 56.3936 16.4526 56.3805C16.4927 56.3673 16.5279 56.3422 16.5533 56.3085C17.7843 54.6274 18.8816 52.8546 19.8227 50.9906C19.8356 50.9651 19.843 50.9371 19.8443 50.9086C19.8457 50.88 19.841 50.8514 19.8305 50.8248C19.82 50.7982 19.804 50.7741 19.7835 50.7541C19.7631 50.7341 19.7386 50.7186 19.7117 50.7088C17.9709 50.0485 16.3136 49.2434 14.7192 48.3293C14.6901 48.3122 14.6657 48.2883 14.6481 48.2595C14.6305 48.2308 14.6202 48.1981 14.6182 48.1644C14.6162 48.1308 14.6225 48.0972 14.6366 48.0665C14.6507 48.0359 14.6721 48.0092 14.6989 47.9888C15.0344 47.7373 15.3701 47.476 15.6904 47.2117C15.7189 47.1882 15.7533 47.1732 15.7899 47.1682C15.8264 47.1633 15.8637 47.1686 15.8973 47.1837C26.3715 51.9658 37.7107 51.9658 48.0611 47.1837C48.0948 47.1677 48.1324 47.1615 48.1694 47.166C48.2065 47.1705 48.2415 47.1854 48.2704 47.209C48.5909 47.473 48.9264 47.7373 49.2645 47.9888C49.2915 48.009 49.313 48.0355 49.3273 48.066C49.3415 48.0965 49.3481 48.13 49.3463 48.1636C49.3446 48.1972 49.3346 48.2299 49.3173 48.2587C49.3 48.2876 49.2758 48.3117 49.2469 48.329C47.652 49.2606 45.9811 50.0558 44.2523 50.7061C44.2254 50.7164 44.201 50.7322 44.1807 50.7525C44.1604 50.7729 44.1446 50.7972 44.1344 50.8241C44.1241 50.851 44.1197 50.8797 44.1213 50.9084C44.1229 50.9371 44.1306 50.9651 44.1437 50.9906C45.1048 52.852 46.2021 54.6248 47.4104 56.3058C47.4351 56.3405 47.4701 56.3666 47.5104 56.3802C47.5507 56.3939 47.5942 56.3946 47.6349 56.3821C52.8643 54.7642 58.1669 52.3237 63.6411 48.3037C63.6646 48.2865 63.6843 48.2645 63.6987 48.2391C63.7131 48.2137 63.7219 48.1856 63.7245 48.1565C65.0589 34.3512 61.4893 22.3594 54.2619 11.7288C54.2441 11.6942 54.2146 11.6674 54.1787 11.6528ZM21.3867 40.8832C18.2333 40.8832 15.6349 37.988 15.6349 34.4325C15.6349 30.8773 18.1829 27.9821 21.3869 27.9821C24.6157 27.9821 27.1888 30.9026 27.1384 34.4328C27.1384 37.988 24.5904 40.8832 21.3867 40.8832ZM42.6528 40.8832C39.4995 40.8832 36.9011 37.988 36.9011 34.4325C36.9011 30.8773 39.4488 27.9821 42.6528 27.9821C45.8816 27.9821 48.4547 30.9026 48.4043 34.4328C48.4043 37.988 45.8816 40.8832 42.6528 40.8832Z" fill="#26FFDF"/>
</g>
<defs>
<clipPath id="clip0_1034_8">
<rect width="64" height="64" fill="white"/>
</clipPath>
</defs>
</svg>
