<svg width="64" height="64" viewBox="0 0 64 64" fill="none" xmlns="http://www.w3.org/2000/svg">
<path d="M31.6336 44.5474C38.6972 44.5474 44.4234 38.8212 44.4234 31.7576C44.4234 24.694 38.6972 18.9678 31.6336 18.9678C24.5699 18.9678 18.8438 24.694 18.8438 31.7576C18.8438 38.8212 24.5699 44.5474 31.6336 44.5474Z" fill="#26FFDF"/>
<path d="M19.3086 1.86841C9.42594 1.86841 1.37891 9.91544 1.37891 19.7981V44.2005C1.37891 54.0832 9.42594 62.1297 19.3086 62.1297H43.9583C53.841 62.1297 61.8875 54.0837 61.8875 44.2005V19.7981C61.8875 9.91544 53.8415 1.86841 43.9583 1.86841H19.3086ZM19.3086 7.66671H43.9583C50.7292 7.66671 56.0892 13.0277 56.0892 19.7981V44.2005C56.0892 50.9714 50.7292 56.3314 43.9583 56.3314H19.3086C12.5377 56.3314 7.17721 50.9714 7.17721 44.2005V19.7981C7.17721 13.0272 12.5382 7.66671 19.3086 7.66671Z" fill="#26FFDF"/>
<path d="M47.9098 19.6793C49.9167 19.6793 51.5435 18.0524 51.5435 16.0456C51.5435 14.0387 49.9167 12.4119 47.9098 12.4119C45.903 12.4119 44.2761 14.0387 44.2761 16.0456C44.2761 18.0524 45.903 19.6793 47.9098 19.6793Z" fill="#26FFDF"/>
</svg>
