<svg xmlns="http://www.w3.org/2000/svg" xmlns:xlink="http://www.w3.org/1999/xlink" width="500" zoomAndPan="magnify" viewBox="0 0 375 374.999991" height="500" preserveAspectRatio="xMidYMid meet" version="1.0"><path fill="#076a6d" d="M 301.898438 86.910156 C 299.523438 85.683594 297.214844 84.339844 294.976562 82.878906 C 288.441406 78.5625 282.515625 73.527344 277.199219 67.777344 C 263.941406 52.609375 258.992188 37.222656 257.167969 26.449219 L 257.242188 26.449219 C 255.71875 17.503906 256.347656 11.71875 256.441406 11.71875 L 196.0625 11.71875 L 196.0625 245.199219 C 196.0625 248.335938 196.0625 251.433594 195.929688 254.496094 C 195.929688 254.875 195.894531 255.226562 195.871094 255.636719 C 195.871094 255.804688 195.871094 255.980469 195.835938 256.15625 C 195.835938 256.199219 195.835938 256.246094 195.835938 256.289062 C 195.675781 258.375 195.390625 260.445312 194.980469 262.496094 C 194.566406 264.546875 194.03125 266.566406 193.375 268.550781 C 192.714844 270.539062 191.9375 272.476562 191.039062 274.367188 C 190.144531 276.257812 189.136719 278.085938 188.015625 279.855469 C 186.894531 281.621094 185.671875 283.3125 184.34375 284.933594 C 183.015625 286.550781 181.59375 288.078125 180.078125 289.523438 C 178.566406 290.964844 176.96875 292.3125 175.289062 293.558594 C 173.609375 294.808594 171.859375 295.949219 170.039062 296.980469 C 166.234375 299.148438 162.210938 300.789062 157.976562 301.90625 C 153.742188 303.023438 149.4375 303.578125 145.054688 303.574219 C 116.925781 303.574219 94.125 280.632812 94.125 252.304688 C 94.125 223.972656 116.925781 201.035156 145.054688 201.035156 C 150.414062 201.03125 155.640625 201.859375 160.738281 203.519531 L 160.8125 142.039062 C 156.976562 141.542969 153.128906 141.246094 149.265625 141.148438 C 145.402344 141.050781 141.546875 141.15625 137.695312 141.457031 C 133.839844 141.757812 130.015625 142.257812 126.214844 142.953125 C 122.414062 143.648438 118.65625 144.542969 114.949219 145.625 C 111.238281 146.710938 107.597656 147.984375 104.019531 149.445312 C 100.441406 150.90625 96.949219 152.550781 93.542969 154.371094 C 90.136719 156.195312 86.832031 158.1875 83.628906 160.351562 C 80.425781 162.515625 77.347656 164.839844 74.386719 167.320312 C 63.898438 176.433594 55.28125 187.0625 48.53125 199.203125 C 45.980469 203.597656 36.363281 221.257812 35.199219 249.917969 C 34.46875 266.183594 39.351562 283.035156 41.683594 290.003906 L 41.683594 290.148438 C 43.148438 294.25 48.824219 308.246094 58.074219 320.046875 C 65.574219 329.5625 74.292969 337.789062 84.226562 344.722656 L 84.226562 344.574219 L 84.375 344.722656 C 113.605469 364.585938 146.015625 363.28125 146.015625 363.28125 C 151.625 363.054688 170.417969 363.28125 191.761719 353.167969 C 215.433594 341.953125 228.910156 325.246094 228.910156 325.246094 C 237.582031 315.191406 244.332031 303.976562 249.15625 291.605469 C 254.617188 277.242188 256.441406 260.015625 256.441406 253.132812 L 256.441406 129.265625 C 257.175781 129.703125 266.929688 136.15625 266.929688 136.15625 C 266.929688 136.15625 280.984375 145.164062 302.914062 151.03125 C 318.648438 155.207031 339.84375 156.085938 339.84375 156.085938 L 339.84375 96.144531 C 332.417969 96.949219 317.335938 94.605469 301.898438 86.910156 Z M 301.898438 86.910156 " fill-opacity="1" fill-rule="nonzero"/></svg>