<svg width="53" height="53" viewBox="0 0 53 53" fill="none" xmlns="http://www.w3.org/2000/svg">
<g clip-path="url(#clip0_167_34)">
<path d="M26.4387 0C17.8632 0.215865 9.38985 2.50646 1.79042 6.46324C2.63014 15.1519 5.30001 23.6352 9.83096 31.095C10.6337 32.4299 11.4955 33.7295 12.4097 34.9894C10.6944 32.2461 9.30041 29.3013 8.28733 26.2212C6.48644 20.7959 5.73505 15.0051 6.026 9.29929C12.0868 5.67928 19.011 3.44334 26.0329 2.67264C34.5146 1.74072 43.29 2.94205 51.1323 6.31142C43.5119 2.38776 35.0142 0.164521 26.4387 0ZM51.1323 6.31142C47.4334 5.1134 43.6516 4.2389 39.8234 3.73153C28.312 2.173 16.472 4.24 6.02655 9.29929C12.4103 6.29982 19.4041 4.62259 26.4536 4.41059C33.5032 4.57511 40.5069 6.20707 46.9083 9.16679C48.2416 18.1161 46.719 27.5015 42.6065 35.5641C40.9425 38.897 38.8032 42.0318 36.3348 44.8176C33.5209 48.0009 30.242 50.7823 26.6226 52.9978C26.7446 52.9304 27.7455 52.3761 28.2087 52.1111L28.9513 51.6761C30.8653 50.5267 32.7032 49.2458 34.4395 47.8402C46.8625 37.8873 52.5981 21.9795 51.1323 6.31142ZM44.7591 26.1036C41.9302 34.8861 36.0273 42.5949 28.3291 47.6785C27.7781 48.0478 27.178 48.4282 26.5988 48.7782C19.4289 44.6459 13.3742 38.6166 9.08289 31.5494C4.51495 24.0377 1.89918 15.2519 1.79042 6.46324C0.408554 22.1352 6.26561 38.0236 18.7493 47.8905C20.4928 49.2856 22.3368 50.5543 24.2597 51.691L25.005 52.1216C25.5035 52.401 26.6093 53.005 26.6093 53.005C26.6104 53.005 26.6104 53.0039 26.6121 53.0039C28.3131 51.7407 29.945 50.3969 31.4826 48.9593C34.9375 45.7307 37.9326 42.0097 40.3363 37.9397C45.4205 29.3173 47.5802 19.1258 46.9083 9.16679C47.2374 14.8698 46.5246 20.6667 44.7591 26.1036Z" fill="#1E7D7D"/>
<mask id="mask0_167_34" style="mask-type:luminance" maskUnits="userSpaceOnUse" x="9" y="6" width="35" height="35">
<path d="M9.59521 6.9209H43.4048V40.7305H9.59521V6.9209Z" fill="white"/>
</mask>
<g mask="url(#mask0_167_34)">
<mask id="mask1_167_34" style="mask-type:luminance" maskUnits="userSpaceOnUse" x="9" y="6" width="35" height="35">
<path d="M26.5 6.9209C17.1637 6.9209 9.59521 14.4894 9.59521 23.8257C9.59521 33.162 17.1637 40.7305 26.5 40.7305C35.8363 40.7305 43.4048 33.162 43.4048 23.8257C43.4048 14.4894 35.8363 6.9209 26.5 6.9209Z" fill="white"/>
</mask>
<g mask="url(#mask1_167_34)">
<path d="M9.59521 6.9209H43.4048V40.7305H9.59521V6.9209Z" fill="#1E7D7D"/>
</g>
</g>
<path d="M24.9569 14.7814H27.9713C28.1794 14.7814 28.3484 14.6125 28.3484 14.4049C28.3484 14.1968 28.1794 14.0278 27.9713 14.0278H24.9569C24.7488 14.0278 24.5798 14.1968 24.5798 14.4049C24.5798 14.6125 24.7488 14.7814 24.9569 14.7814Z" fill="white"/>
<path d="M35.5078 16.2887H24.9569C24.7488 16.2887 24.5798 16.4576 24.5798 16.6658C24.5798 16.8739 24.7488 17.0423 24.9569 17.0423H35.5078C35.7159 17.0423 35.8848 16.8739 35.8848 16.6658C35.8848 16.4576 35.7159 16.2887 35.5078 16.2887Z" fill="white"/>
<path d="M22.6956 23.0716H25.7105C25.9187 23.0716 26.0871 22.9026 26.0871 22.6951C26.0871 22.4869 25.9187 22.318 25.7105 22.318H22.6956C22.488 22.318 22.3191 22.4869 22.3191 22.6951C22.3191 22.9026 22.488 23.0716 22.6956 23.0716Z" fill="white"/>
<path d="M22.6956 25.3323H33.247C33.4552 25.3323 33.6236 25.1639 33.6236 24.9558C33.6236 24.7477 33.4552 24.5787 33.247 24.5787H22.6956C22.488 24.5787 22.3191 24.7477 22.3191 24.9558C22.3191 25.1639 22.488 25.3323 22.6956 25.3323Z" fill="white"/>
<mask id="mask2_167_34" style="mask-type:luminance" maskUnits="userSpaceOnUse" x="15" y="11" width="23" height="9">
<path d="M15.4053 11.7671H37.4434V19.3627H15.4053V11.7671Z" fill="white"/>
</mask>
<g mask="url(#mask2_167_34)">
<path d="M35.5078 11.7671H17.4205C16.3803 11.7671 15.5362 12.6112 15.5362 13.6508V17.4193C15.5362 18.4594 16.3803 19.3036 17.4205 19.3036H35.5078C36.5479 19.3036 37.3921 18.4594 37.3921 17.4193V13.6508C37.3921 12.6112 36.5479 11.7671 35.5078 11.7671ZM22.2368 13.8871L19.2225 17.6551C19.1551 17.7379 19.0552 17.7892 18.9486 17.7953C18.942 17.7964 18.9343 17.7964 18.9276 17.7964C18.8283 17.7964 18.7317 17.7572 18.661 17.686L17.1538 16.1788C17.0064 16.0319 17.0064 15.7929 17.1538 15.646C17.3007 15.4992 17.5392 15.4992 17.6866 15.646L18.8962 16.8556L21.6478 13.4162C21.778 13.2544 22.0154 13.2274 22.1772 13.3571C22.3401 13.4868 22.3666 13.7242 22.2368 13.8871ZM36.6385 17.4193C36.6385 18.0448 36.1333 18.55 35.5078 18.55H23.8263V12.5207H35.5078C36.1333 12.5207 36.6385 13.0253 36.6385 13.6508V17.4193Z" fill="white"/>
</g>
<mask id="mask3_167_34" style="mask-type:luminance" maskUnits="userSpaceOnUse" x="13" y="19" width="23" height="9">
<path d="M13.2754 19.928H35.192V27.7013H13.2754V19.928Z" fill="white"/>
</mask>
<g mask="url(#mask3_167_34)">
<path d="M35.1313 25.7094V21.9414C35.1313 20.9013 34.2871 20.0571 33.247 20.0571H15.1597C14.1195 20.0571 13.2754 20.9013 13.2754 21.9414V25.7094C13.2754 26.7495 14.1195 27.5936 15.1597 27.5936H33.247C34.2871 27.5936 35.1313 26.7495 35.1313 25.7094ZM19.976 22.1771L16.9611 25.9451C16.8943 26.029 16.7949 26.0804 16.6878 26.0864C16.6812 26.0864 16.6735 26.0864 16.6668 26.0864C16.5675 26.0864 16.4708 26.0472 16.3996 25.976L14.8924 24.4688C14.7456 24.322 14.7456 24.0829 14.8924 23.9361C15.0393 23.7892 15.2783 23.7892 15.4252 23.9361L16.6348 25.1457L19.3864 21.7062C19.5172 21.5444 19.7535 21.5174 19.9164 21.6471C20.0793 21.7769 20.1058 22.0143 19.976 22.1771ZM21.5655 20.8107H33.247C33.8725 20.8107 34.3771 21.3153 34.3771 21.9414V25.7094C34.3771 26.3349 33.8725 26.84 33.247 26.84H21.5655V20.8107Z" fill="white"/>
</g>
<mask id="mask4_167_34" style="mask-type:luminance" maskUnits="userSpaceOnUse" x="15" y="28" width="23" height="8">
<path d="M15.4053 28.2667H37.4434V35.8987H15.4053V28.2667Z" fill="white"/>
</mask>
<g mask="url(#mask4_167_34)">
<path d="M35.5078 28.3473H17.4205C16.3803 28.3473 15.5362 29.1914 15.5362 30.2316V33.9995C15.5362 35.0396 16.3803 35.8838 17.4205 35.8838H35.5078C36.5479 35.8838 37.3921 35.0396 37.3921 33.9995V30.2316C37.3921 29.1914 36.5479 28.3473 35.5078 28.3473ZM22.2368 30.4673L19.2225 34.2353C19.1551 34.3192 19.0557 34.3705 18.9486 34.3766C18.942 34.3766 18.9343 34.3766 18.9276 34.3766C18.8283 34.3766 18.7317 34.3374 18.661 34.2662L17.1538 32.759C17.0064 32.6121 17.0064 32.3731 17.1538 32.2262C17.3007 32.0794 17.5392 32.0794 17.6866 32.2262L18.8962 33.4358L21.6478 29.9964C21.778 29.8352 22.0154 29.8076 22.1772 29.9373C22.3401 30.067 22.3666 30.3044 22.2368 30.4673ZM36.6385 33.9995C36.6385 34.625 36.1333 35.1302 35.5078 35.1302H23.8263V29.1009H35.5078C36.1333 29.1009 36.6385 29.606 36.6385 30.2316V33.9995Z" fill="white"/>
</g>
<path d="M24.9569 31.3616H27.9713C28.1794 31.3616 28.3484 31.1927 28.3484 30.9851C28.3484 30.777 28.1794 30.608 27.9713 30.608H24.9569C24.7488 30.608 24.5798 30.777 24.5798 30.9851C24.5798 31.1927 24.7488 31.3616 24.9569 31.3616Z" fill="white"/>
<path d="M35.5078 32.8689H24.9569C24.7488 32.8689 24.5798 33.0378 24.5798 33.246C24.5798 33.4541 24.7488 33.6225 24.9569 33.6225H35.5078C35.7159 33.6225 35.8848 33.4541 35.8848 33.246C35.8848 33.0378 35.7159 32.8689 35.5078 32.8689Z" fill="white"/>
</g>
<defs>
<clipPath id="clip0_167_34">
<rect width="53" height="53" fill="white"/>
</clipPath>
</defs>
</svg>
