<svg width="81" height="60" viewBox="0 0 81 60" fill="none" xmlns="http://www.w3.org/2000/svg">
<g clip-path="url(#clip0_1034_10)">
<path d="M32.147 41.0668L54.0423 29.1334L32.147 17.1001V41.0668Z" fill="#094248"/>
<path opacity="0.68" d="M32.147 17.1001L51.3528 30.6001L54.0423 29.1334L32.147 17.1001Z" fill="#094248"/>
<path d="M10.8438 3.52759C26.1923 2.2985 41.6465 2.35759 57.1299 2.77954C59.7135 2.96278 62.5852 2.96936 64.9785 3.07935C67.5067 3.19554 69.8728 3.43029 72.123 4.04419C75.2475 5.09241 77.0986 8.80414 77.666 13.2493L77.6719 13.2942C78.0426 16.6664 78.301 20.0486 78.4258 23.4329L78.4707 24.8958C78.4962 33.2723 78.7422 41.3355 77.1982 49.1536L77.1904 49.1926L77.1836 49.2327C76.5381 53.1525 73.4968 56.1652 70.1201 56.4407L70.1123 56.4417C58.7819 57.4009 47.3668 57.5328 35.9131 57.4417C26.9208 57.1341 18.4464 57.4794 9.96973 56.1467C6.97164 55.6678 4.44541 52.8442 3.81055 49.2063L3.80469 49.1721L3.79785 49.1389L3.67969 48.5393C2.50258 42.3494 2.5136 35.9307 2.5 29.2952C2.56688 22.6608 2.53871 16.3034 3.95312 10.2424L3.96387 10.1926L3.97363 10.1428C4.66059 6.5381 7.61743 3.81655 10.8428 3.52661L10.8438 3.52759ZM29.6338 45.2766L33.3311 43.261L55.2178 31.3284L59.2266 29.1418L55.2256 26.9426L33.3389 14.9094L29.6338 12.8723V45.2766Z" stroke="#26FFDF" stroke-width="5"/>
</g>
<defs>
<clipPath id="clip0_1034_10">
<rect width="81" height="60" fill="white"/>
</clipPath>
</defs>
</svg>
